<?xml version="1.0" encoding="utf-8"?>
<!-- Generator: Adobe Illustrator 11.0, SVG Export Plug-In . SVG Version: 6.0.0 Build 78)  -->
<!DOCTYPE svg PUBLIC "-//W3C//DTD SVG 1.0//EN"    "http://www.w3.org/TR/2001/REC-SVG-20010904/DTD/svg10.dtd" [
	<!ENTITY ns_flows "http://ns.adobe.com/Flows/1.0/">
	<!ENTITY ns_svg "http://www.w3.org/2000/svg">
	<!ENTITY ns_xlink "http://www.w3.org/1999/xlink">
]>
<svg  xmlns="&ns_svg;" xmlns:xlink="&ns_xlink;" xmlns:a="http://ns.adobe.com/AdobeSVGViewerExtensions/3.0/"
	 width="250" height="250" viewBox="0 0 250 250" style="overflow:visible;enable-background:new 0 0 250 250" xml:space="preserve"
	>
	<style type="text/css">
	<![CDATA[
		.st0{fill:#B1A6FF;}
		.st1{fill:#1FC96F;}
		.st2{fill:#515151;}
		.st3{fill:#5A4DFF;}
		.st4{fill:#FFFFFF;}
		.st5{fill:none;}
		.st6{fill:#CECECE;}
	]]>
	</style>
		<g id="Layer_1">
			<g>
				<polygon class="st0" points="231.3,160.8 231.3,20.1 71.9,20.1 71.9,232.8 134.9,232.8 "/>
				<polyline class="st3" points="135.8,160.5 135,232.8 230.8,160.9 "/>
			</g>
			<g>
				<polygon class="st1" points="149.5,52.1 123.1,56.9 28.5,185.3 59,209.3 153.7,80.9 "/>
				<path class="st6" d="M55.1,214.9l-10.7,14.6c-0.5,0.7-6-2.6-12.2-7.5l-4.1-3.2l-4-3.1c-6.2-4.9-10.8-9.4-10.3-10.2l10.7-14.6
					L55.1,214.9z"/>
				<path class="st2" d="M144.4,60.4c0,0-1.5,9,7.5,19.3l1.7,1.3l11.3-49.4l-41.8,25.4l0.2,0.2C127.7,59.6,135,62.4,144.4,60.4z"/>
				<path class="st4" d="M50.9,178.3c-1.3,1.8-3.9,2.1-5.8,0.6l0,0c-1.9-1.5-2.3-4.1-1-5.9l73.5-99.8c1.3-1.8,3.9-2.1,5.8-0.6l0,0
					c1.9,1.5,2.3,4.1,1,5.9L50.9,178.3z"/>
			</g>
			<rect class="st5" width="250" height="250"/> 
		</g>
	</svg>
