<?xml version="1.0" encoding="utf-8"?>
<!-- Generator: Adobe Illustrator 11.0, SVG Export Plug-In . SVG Version: 6.0.0 Build 78)  -->
<!DOCTYPE svg PUBLIC "-//W3C//DTD SVG 1.0//EN"    "http://www.w3.org/TR/2001/REC-SVG-20010904/DTD/svg10.dtd" [
	<!ENTITY ns_flows "http://ns.adobe.com/Flows/1.0/">
	<!ENTITY ns_svg "http://www.w3.org/2000/svg">
	<!ENTITY ns_xlink "http://www.w3.org/1999/xlink">
]>
<svg  xmlns="&ns_svg;" xmlns:xlink="&ns_xlink;" xmlns:a="http://ns.adobe.com/AdobeSVGViewerExtensions/3.0/"
	 width="362.4" height="372.7" viewBox="0 0 362.4 372.7" style="overflow:visible;enable-background:new 0 0 362.4 372.7"
	 xml:space="preserve">
	<style type="text/css">
	<![CDATA[
		.st0{fill:#B1A6FF;}
		.st1{fill:#1FC96F;}
		.st2{fill:#515151;}
		.st3{fill:#5A4DFF;}
		.st4{fill:#FFFFFF;}
		.st5{fill:#CECECE;}
	]]>
	</style>
		<g id="Layer_1">
			<g>
				<polygon class="st0" points="362.4,246.4 362.4,0 96.9,0 96.9,372.7 201.8,372.7 "/>
				<polyline class="st3" points="203.3,246 201.9,372.7 361.6,246.7 "/>
			</g>
			<g>
				<polygon class="st1" points="226.1,56.1 182.2,64.3 24.5,289.4 75.4,331.5 233.1,106.5 "/>
				<path class="st5" d="M68.8,341.4L51,366.9c-0.9,1.3-10-4.6-20.4-13.2l-6.8-5.6l-6.6-5.5c-10.4-8.6-18-16.5-17.1-17.8l17.8-25.5
					L68.8,341.4z"/>
				<path class="st2" d="M217.6,70.5c0,0-2.5,15.8,12.5,33.9l2.8,2.3l18.8-86.6L182,64.6l0.3,0.3C189.8,69.3,202,73.9,217.6,70.5z"
					/>
				<path class="st4" d="M61.9,277.2c-2.2,3.1-6.5,3.6-9.6,1l0,0c-3.1-2.6-3.9-7.2-1.7-10.3L173.1,93.1c2.2-3.1,6.5-3.6,9.6-1l0,0
					c3.1,2.6,3.9,7.2,1.7,10.3L61.9,277.2z"/>
			</g>
		</g>
	</svg>
