<?xml version="1.0" encoding="utf-8"?>
<!-- Generator: Adobe Illustrator 11.0, SVG Export Plug-In . SVG Version: 6.0.0 Build 78)  -->
<!DOCTYPE svg PUBLIC "-//W3C//DTD SVG 1.0//EN"    "http://www.w3.org/TR/2001/REC-SVG-20010904/DTD/svg10.dtd" [
	<!ENTITY ns_flows "http://ns.adobe.com/Flows/1.0/">
	<!ENTITY ns_svg "http://www.w3.org/2000/svg">
	<!ENTITY ns_xlink "http://www.w3.org/1999/xlink">
]>
<svg  xmlns="&ns_svg;" xmlns:xlink="&ns_xlink;" xmlns:a="http://ns.adobe.com/AdobeSVGViewerExtensions/3.0/"
	 width="253" height="381.3" viewBox="0 0 253 381.3" style="overflow:visible;enable-background:new 0 0 253 381.3"
	 xml:space="preserve">
	<style type="text/css">
	<![CDATA[
		.st0{fill:#E4B0FF;stroke:#FFFFFF;stroke-width:10;}
		.st1{fill:#9DEDE9;stroke:#FFFFFF;stroke-width:10;}
		.st2{fill:#FFD55F;}
		.st3{fill:none;}
		.st4{fill:#CAFF85;}
		.st5{fill:#A8A8A8;}
	]]>
	</style>
		<g id="Layer_1">
			<path class="st0" d="M240.3,239.8c0,5.8-4.4,10.5-9.9,10.5H83.2c-5.4,0-9.9-4.7-9.9-10.5V61.5c0-5.8,4.4-10.5,9.9-10.5h147.2
				c5.4,0,9.9,4.7,9.9,10.5V239.8z"/>
			<path class="st4" d="M132.1,146.4c-27,20.9-17,73.2-17,73.2c0,3.3,2.6,6.1,5.9,6.1h39v-59.9c-0.1,0-0.2,0-0.3,0
				C147.7,165.8,137.4,158,132.1,146.4z M158.9,157.1c0.3,0,0.7,0,1,0c0.3,0,0.7,0,1,0c15.6-0.1,28.3-15.3,28.2-34.1
				c-0.1-18.8-12.7-34-28.3-34c-0.3,0-0.6,0-0.9,0s-0.6,0-0.9,0c-15.6,0-28.3,15.2-28.3,34C130.6,141.8,143.3,157.1,158.9,157.1z
				 M187.7,146.3c-5.3,11.6-15.6,19.5-27.4,19.5c-0.1,0-0.2,0-0.3,0l0.1,59.9l39-0.1c3.2,0,5.9-2.7,5.9-6.1
				C204.9,219.5,214.7,167.2,187.7,146.3z"/>
			<path class="st5" d="M156.2,381.3"/>
			<path class="st1" d="M175.6,196.9c0,5.8-4.4,10.5-9.9,10.5H18.5c-5.4,0-9.9-4.7-9.9-10.5V18.5C8.7,12.7,13.1,8,18.5,8h147.2
				c5.4,0,9.9,4.7,9.9,10.5L175.6,196.9L175.6,196.9z"/>
			<polygon class="st4" points="91.2,185.9 31.6,185.9 60.9,81.3 "/>
			<polygon class="st4" points="136,186 76.3,186 105.7,136.1 "/>
			<ellipse class="st2" cx="121" cy="71.5" rx="22.5" ry="29.3"/> 
			<rect class="st3" width="253" height="254"/> 
		</g>
	</svg>
