<?xml version="1.0" encoding="utf-8"?>
<!-- Generator: Adobe Illustrator 11.0, SVG Export Plug-In . SVG Version: 6.0.0 Build 78)  -->
<!DOCTYPE svg PUBLIC "-//W3C//DTD SVG 1.0//EN"    "http://www.w3.org/TR/2001/REC-SVG-20010904/DTD/svg10.dtd" [
	<!ENTITY ns_flows "http://ns.adobe.com/Flows/1.0/">
	<!ENTITY ns_svg "http://www.w3.org/2000/svg">
	<!ENTITY ns_xlink "http://www.w3.org/1999/xlink">
]>
<svg  xmlns="&ns_svg;" xmlns:xlink="&ns_xlink;" xmlns:a="http://ns.adobe.com/AdobeSVGViewerExtensions/3.0/"
	 width="321.2" height="344.1" viewBox="0 0 321.2 344.1" style="overflow:visible;enable-background:new 0 0 321.2 344.1"
	 xml:space="preserve">
	<style type="text/css">
	<![CDATA[
		.st0{fill:#B71DFF;}
		.st1{fill:none;stroke:#FFFFFF;stroke-width:5;}
		.st2{fill:#2A1AFF;}
		.st3{fill:#FFFFFF;}
		.st4{fill:none;}
	]]>
	</style>
		<g id="Layer_1">
			<path class="st4" d="M95.8,249.7c-6.6,0-12-5.4-12-12V62.3c0-6.6,5.4-12,12-12H194c11.4-19.1,28.7-24.8,28.7-24.8L219.5,0L0,14.9
				l52.2,329.2l119.3-65c-4.7-10.3-8.3-20.2-11-29.5H95.8z"/>
			<path class="st2" d="M88.8,65.3v175.3c0,6.6,5.4,12,12,12h64.7c-26.2-88.6,27-131.4,27-131.4c-7.3-32.2-2-53.7,6.5-67.9h-98.2
				C94.1,53.3,88.8,58.7,88.8,65.3z"/>
			<line class="st1" x1="106.7" y1="79.7" x2="134.4" y2="79.7"/>
			<path class="st3" d="M207.4,79.5c0,4.4-2.8,8-6.2,8h-48.8c-3.4,0-6.2-3.6-6.2-8l0,0c0-4.4,2.8-8,6.2-8h48.8
				C204.6,71.5,207.4,75.1,207.4,79.5L207.4,79.5z"/>
			<line class="st1" x1="106.1" y1="112.4" x2="214" y2="112.4"/>
			<path class="st3" d="M151.9,146.2c0,4.4-3.1,8-7,8h-30.5c-3.9,0-7-3.6-7-8l0,0c0-4.4,3.1-8,7-8h30.5
				C148.8,138.2,151.9,141.8,151.9,146.2L151.9,146.2z"/>
			<path class="st3" d="M207.5,146.1c0,4.4-3.1,8-6.9,8h-30.2c-3.8,0-6.9-3.6-6.9-8l0,0c0-4.4,3.1-8,6.9-8h30.2
				C204.4,138.1,207.5,141.7,207.5,146.1L207.5,146.1z"/>
			<line class="st1" x1="105.4" y1="187.9" x2="213.4" y2="187.9"/>
			<line class="st1" x1="105.5" y1="222.6" x2="133.1" y2="222.6"/>
			<path class="st3" d="M206.1,222.5c0,4.4-2.9,8-6.6,8H148c-3.6,0-6.6-3.6-6.6-8l0,0c0-4.4,2.9-8,6.6-8h51.5
				C203.2,214.5,206.1,218,206.1,222.5L206.1,222.5z"/>
			<path class="st0" d="M199.1,130.9c-44.2,32.1-27.9,112.5-27.9,112.5c0,5.1,4.3,9.3,9.6,9.3h63.9v-92c-0.2,0-0.4,0-0.5,0
				C224.7,160.7,207.8,148.7,199.1,130.9z M243,147.3c0.5,0,1.1,0,1.6,0c0.5,0,1.1,0,1.6,0c25.6-0.1,46.3-23.5,46.2-52.4
				S271.6,42.6,246,42.7c-0.5,0-1,0-1.5,0c-0.5,0-1,0-1.5,0c-25.6,0-46.3,23.4-46.3,52.3C196.7,123.9,217.4,147.3,243,147.3z
				 M290.1,130.8c-8.6,17.8-25.5,29.9-44.9,29.9c-0.2,0-0.4,0-0.5,0l0.2,92l63.9-0.1c5.3,0,9.6-4.2,9.6-9.3
				C318.3,243.2,334.4,162.8,290.1,130.8z"/>
			<path class="st3" d="M267.1,197.9c0-13.4-9.8-24.3-21.8-24.3c-12.1,0-21.8,10.9-21.8,24.3c0,10.8,6.4,20,15.2,23.1v52.7h13.9
				v-52.9C261,217.5,267.1,208.5,267.1,197.9z"/>
		</g>
	</svg>
