<?xml version="1.0" encoding="utf-8"?>
<!-- Generator: Adobe Illustrator 11.0, SVG Export Plug-In . SVG Version: 6.0.0 Build 78)  -->
<!DOCTYPE svg PUBLIC "-//W3C//DTD SVG 1.0//EN"    "http://www.w3.org/TR/2001/REC-SVG-20010904/DTD/svg10.dtd" [
	<!ENTITY ns_flows "http://ns.adobe.com/Flows/1.0/">
	<!ENTITY ns_svg "http://www.w3.org/2000/svg">
	<!ENTITY ns_xlink "http://www.w3.org/1999/xlink">
]>
<svg  xmlns="&ns_svg;" xmlns:xlink="&ns_xlink;" xmlns:a="http://ns.adobe.com/AdobeSVGViewerExtensions/3.0/"
	 width="250" height="250" viewBox="0 0 250 250" style="overflow:visible;enable-background:new 0 0 250 250;padding-top: 10px;" xml:space="preserve"
	>
	<style type="text/css">
	<![CDATA[
		.st0{fill:#B71DFF;}
		.st1{fill:none;stroke:#FFFFFF;stroke-width:5;}
		.st2{fill:#2A1AFF;}
		.st3{fill:#FFFFFF;}
		.st4{fill:none;}
	]]>
	</style>
		<g id="Layer_1">
			<path class="st2" d="M44.3,57.5v130.8c0,4.9,4,9,9,9h48.3c-19.5-66.1,20.1-98,20.1-98c-5.4-24-1.5-40.1,4.8-50.7H53.3
				C48.3,48.6,44.3,52.6,44.3,57.5z"/>
			<line class="st1" x1="57.7" y1="68.3" x2="78.3" y2="68.3"/>
			<path class="st3" d="M132.8,68.1c0,3.3-2.1,6-4.6,6H91.8c-2.5,0-4.6-2.7-4.6-6l0,0c0-3.3,2.1-6,4.6-6h36.4
				C130.7,62.1,132.8,64.8,132.8,68.1L132.8,68.1z"/>
			<line class="st1" x1="57.2" y1="92.7" x2="137.7" y2="92.7"/>
			<path class="st3" d="M91.4,117.9c0,3.3-2.3,6-5.2,6H63.4c-2.9,0-5.2-2.7-5.2-6l0,0c0-3.3,2.3-6,5.2-6h22.8
				C89.1,111.9,91.4,114.6,91.4,117.9L91.4,117.9z"/>
			<path class="st3" d="M132.9,117.8c0,3.3-2.3,6-5.1,6h-22.5c-2.8,0-5.1-2.7-5.1-6l0,0c0-3.3,2.3-6,5.1-6h22.5
				C130.6,111.8,132.9,114.5,132.9,117.8L132.9,117.8z"/>
			<line class="st1" x1="56.7" y1="149" x2="137.3" y2="149"/>
			<line class="st1" x1="56.8" y1="174.9" x2="77.4" y2="174.9"/>
			<path class="st3" d="M131.8,174.8c0,3.3-2.2,6-4.9,6H88.5c-2.7,0-4.9-2.7-4.9-6l0,0c0-3.3,2.2-6,4.9-6h38.4
				C129.7,168.8,131.8,171.4,131.8,174.8L131.8,174.8z"/>
			<path class="st0" d="M126.6,106.5c-33,24-20.8,83.9-20.8,83.9c0,3.8,3.2,6.9,7.2,6.9h47.7v-68.6c-0.1,0-0.3,0-0.4,0
				C145.7,128.7,133.1,119.7,126.6,106.5z M159.4,118.7c0.4,0,0.8,0,1.2,0s0.8,0,1.2,0c19.1-0.1,34.5-17.5,34.5-39.1
				c-0.1-21.6-15.5-39-34.6-38.9c-0.4,0-0.7,0-1.1,0s-0.7,0-1.1,0c-19.1,0-34.5,17.5-34.5,39S140.3,118.7,159.4,118.7z M194.5,106.4
				c-6.4,13.3-19,22.3-33.5,22.3c-0.1,0-0.3,0-0.4,0l0.1,68.6l47.7-0.1c4,0,7.2-3.1,7.2-6.9C215.5,190.2,227.6,130.3,194.5,106.4z"
				/>
			<path class="st3" d="M177.3,156.4c0-10-7.3-18.1-16.3-18.1c-9,0-16.3,8.1-16.3,18.1c0,8.1,4.8,14.9,11.3,17.2V213h10.4v-39.5
				C172.8,171.1,177.3,164.4,177.3,156.4z"/>
			<rect class="st4" width="250" height="250"/> 
		</g>
	</svg>
