<?xml version="1.0" encoding="utf-8"?>
<!-- Generator: Adobe Illustrator 11.0, SVG Export Plug-In . SVG Version: 6.0.0 Build 78)  -->
<!DOCTYPE svg PUBLIC "-//W3C//DTD SVG 1.0//EN"    "http://www.w3.org/TR/2001/REC-SVG-20010904/DTD/svg10.dtd" [
	<!ENTITY ns_flows "http://ns.adobe.com/Flows/1.0/">
	<!ENTITY ns_svg "http://www.w3.org/2000/svg">
	<!ENTITY ns_xlink "http://www.w3.org/1999/xlink">
]>
<svg  xmlns="&ns_svg;" xmlns:xlink="&ns_xlink;" xmlns:a="http://ns.adobe.com/AdobeSVGViewerExtensions/3.0/"
	 width="416.5" height="284.8" viewBox="0 0 416.5 284.8" style="overflow:visible;enable-background:new 0 0 416.5 284.8"
	 xml:space="preserve">
	<style type="text/css">
	<![CDATA[
		.st0{fill:#81FCA1;}
		.st1{fill:#8251FC;}
		.st2{fill:#B276FF;}
		.st3{fill:#8800FF;}
		.st4{fill:#1EC600;}
		.st5{fill:#3711F4;}
	]]>
	</style>
		<g id="Layer_1">
			<path class="st4" d="M343.8,80.1c-23.8,0-43.1,22.4-43.1,50.1c0,27.7,19.3,50.1,43.1,50.1c0.5,0,1,0,1.5,0V80.1
				C344.9,80.1,344.4,80.1,343.8,80.1z M303,164.7c-41.1,30.8-26,107.8-26,107.8c0,4.9,4,8.9,8.9,8.9h59.4v-88.2c-0.2,0-0.3,0-0.5,0
				C326.8,193.3,311.1,181.7,303,164.7z"/>
			<path class="st0" d="M345.1,80.1l0.2,100.2c0.5,0,1,0,1.5,0c23.8-0.1,43-22.5,43-50.2c-0.1-27.7-19.4-50.1-43.2-50
				C346.1,80.1,345.6,80.1,345.1,80.1z M345.9,193.3c-0.2,0-0.3,0-0.5,0l0.2,88.2l59.4-0.1c4.9,0,8.9-4,8.9-8.9
				c0,0,15-77.1-26.2-107.8C379.6,181.6,363.9,193.2,345.9,193.3z"/>
			<path class="st5" d="M69.5,83.5c-23.8,0-43.1,22.4-43.1,50.1c0,27.7,19.3,50.1,43.1,50.1c0.5,0,1,0,1.5,0V83.5
				C70.5,83.5,70,83.5,69.5,83.5z M28.7,168c-41.1,30.8-26,107.8-26,107.8c0,4.9,4,8.9,8.9,8.9H71v-88.2c-0.2,0-0.3,0-0.5,0
				C52.5,196.6,36.7,185.1,28.7,168z"/>
			<path class="st1" d="M70.8,83.5L71,183.7c0.5,0,1,0,1.5,0c23.8-0.1,43-22.5,43-50.2c-0.1-27.7-19.4-50.1-43.2-50
				C71.8,83.5,71.3,83.5,70.8,83.5z M71.5,196.6c-0.2,0-0.3,0-0.5,0l0.2,88.2l59.4-0.1c4.9,0,8.9-4,8.9-8.9c0,0,15-77.1-26.2-107.8
				C105.3,185,89.6,196.6,71.5,196.6z"/>
			<path class="st3" d="M207.3,0c-32,0-57.9,30.2-57.9,67.4c0,37.2,25.9,67.4,57.9,67.4c0.7,0,1.4,0,2.1-0.1V0.1
				C208.7,0,208,0,207.3,0z M152.4,113.7c-55.3,41.4-34.9,145-34.9,145c0,6.6,5.4,12,12,12h79.9V152.2c-0.2,0-0.4,0-0.7,0
				C184.4,152.2,163.2,136.6,152.4,113.7z"/>
			<path class="st2" d="M209,0.1l0.3,134.7c0.7,0,1.4,0.1,2.1,0.1c32-0.1,57.9-30.3,57.8-67.5C269,30,243-0.1,211,0
				C210.3,0,209.7,0,209,0.1z M210,152.2c-0.2,0-0.4,0-0.7,0l0.3,118.6l79.9-0.2c6.6,0,12-5.4,12-12c0,0,20.1-103.7-35.2-144.9
				C255.4,136.5,234.3,152.1,210,152.2z"/>
		</g>
	</svg>
