<?xml version="1.0" encoding="utf-8"?>
<!-- Generator: Adobe Illustrator 11.0, SVG Export Plug-In . SVG Version: 6.0.0 Build 78)  -->
<!DOCTYPE svg PUBLIC "-//W3C//DTD SVG 1.0//EN"    "http://www.w3.org/TR/2001/REC-SVG-20010904/DTD/svg10.dtd" [
	<!ENTITY ns_flows "http://ns.adobe.com/Flows/1.0/">
	<!ENTITY ns_svg "http://www.w3.org/2000/svg">
	<!ENTITY ns_xlink "http://www.w3.org/1999/xlink">
]>
<svg  xmlns="&ns_svg;" xmlns:xlink="&ns_xlink;" xmlns:a="http://ns.adobe.com/AdobeSVGViewerExtensions/3.0/"
	 width="304.2" height="381.8" viewBox="0 0 304.2 381.8" style="overflow:visible;enable-background:new 0 0 304.2 381.8"
	 xml:space="preserve">
	<style type="text/css">
	<![CDATA[
		.st0{fill:none;stroke:#FF0000;}
		.st1{fill:#1616F7;}
		.st2{fill:#5E9CF7;}
		.st3{fill:#FF0000;}
		.st4{fill:none;stroke:#1616F7;}
		.st5{fill:#D010FF;}
		.st6{fill:#02AD0E;}
		.st7{fill:#3A3AF9;}
		.st8{fill:#757575;}
		.st9{fill:#A5A5A5;}
	]]>
	</style>
		<g id="Layer_1">
			<polygon class="st5" points="44.5,337.9 55.8,355.8 55.8,326.6 34.1,326.6 34.1,356.9 "/>
			<path class="st3" d="M297.7,374.3h-255c-15.9,0-28.7-6.5-28.7-14.5v-18.7c0-8,12.9-14.5,28.7-14.5h239h16.1v-8h-267
				c-17,0-30.7,8.6-30.7,19.2v24.7c0,10.6,13.8,19.2,30.7,19.2h267V374.3z"/>
			<path class="st0" d="M286.1,326.3c0,0-36.3,19.5-1.2,48.1"/>
			<g>
				<polygon class="st5" points="259.7,272.2 248.4,290.1 248.4,260.9 270,260.9 270,291.2 "/>
				<path class="st1" d="M6.4,308.3l255,0.3c15.9,0,28.8-6.5,28.8-14.5l0-18.7c0-8-12.9-14.5-28.7-14.6l-239-0.3l-16.1,0l0-8
					l267,0.3c17,0,30.7,8.7,30.7,19.3l0,24.7c0,10.6-13.8,19.2-30.7,19.2l-267-0.3L6.4,308.3z"/>
				<path class="st4" d="M18.1,260.3c0,0,36.2,19.6,1.1,48.1"/>
			</g>
			<path class="st9" d="M129.9,142.3"/>
			<g>
				<rect x="59.2" y="223.8" class="st8" width="175.7" height="26.8"/> 
				<rect x="97.6" y="178.5" class="st8" width="12.8" height="45"/> 
			</g>
			<path class="st7" d="M173.9,184.1c-4.5,0.5-9.2,0.8-13.9,0.8c-54.9,0-99.5-38-99.5-84.9C60.5,53.1,105,15,159.9,15
				c4.7,0,9.4,0.3,13.9,0.8V0.6c-4.3-0.4-8.7-0.6-13.2-0.6C94.3,0,40.4,45.1,40.4,100.8s53.8,100.8,120.3,100.8
				c4.5,0,8.8-0.2,13.2-0.6V184.1z"/>
			<ellipse class="st2" cx="159.2" cy="100.9" rx="83.9" ry="67.2"/> 
			<g>
				<path class="st6" d="M153.5,41.6c0,0-47.2,10.8-57.1,29.1c-10,18.4,14.2,37.5,26.1,35.5c12-2.1,11.6-31.2,19.3-36.2
					C149.4,64.9,174.1,35.8,153.5,41.6z"/>
				<path class="st6" d="M184.7,50.9c-20.4,2.7-25.9,35.9-7.8,41.6c18.1,5.6,22.3,12.9,25.9-10.1C206.4,59.3,188.9,50.3,184.7,50.9z
					"/>
				<path class="st6" d="M153,127.7c4.2,15.2-10.9,30.9,10.9,20.8c21.7-10.1,21.1-19.1,15.1-24.2c-6-5.1-9.7-10.7-17.5-9
					C153.6,117,153,127.7,153,127.7z"/>
				<path class="st6" d="M118.5,138.5c5.4-5.6,12.7-12.9,13.3-14.6c0.6-1.7-10.3-4.5-10.3-4.5s-7.2,5.6-10.3,0.6
					c-3-5.1-8.4,5.6-7.2,14c1.2,8.4-1.8,11.8,7.8,11.8c9.7,0,6.6-7.3,6-9"/>
				<path class="st6" d="M225.2,106.8c-1.9-10.8,2.3,13.1-8.8,22.5c-11.1,9.5-11.1,9.5-11.1,9.5s-6.5,6.7-8.9,5.5
					c-2.4-1.2-7,3.5,0-6.4c7-9.9,10.3-12,12.7-17.6c2.4-5.6,3.8-5.3,6.8-13.8c3-8.5,7.3-10.6,7.3-10.6"/>
			</g>
		</g>
	</svg>
