<?xml version="1.0" encoding="utf-8"?>
<!-- Generator: Adobe Illustrator 11.0, SVG Export Plug-In . SVG Version: 6.0.0 Build 78)  -->
<!DOCTYPE svg PUBLIC "-//W3C//DTD SVG 1.0//EN"    "http://www.w3.org/TR/2001/REC-SVG-20010904/DTD/svg10.dtd" [
	<!ENTITY ns_flows "http://ns.adobe.com/Flows/1.0/">
	<!ENTITY ns_svg "http://www.w3.org/2000/svg">
	<!ENTITY ns_xlink "http://www.w3.org/1999/xlink">
]>
<svg  xmlns="&ns_svg;" xmlns:xlink="&ns_xlink;" xmlns:a="http://ns.adobe.com/AdobeSVGViewerExtensions/3.0/"
	 width="250" height="250" viewBox="0 0 250 250" style="overflow:visible;enable-background:new 0 0 250 250" xml:space="preserve"
	>
	<style type="text/css">
	<![CDATA[
		.st0{fill:none;stroke:#FF0000;}
		.st1{fill:#1616F7;}
		.st2{fill:#B8D8FF;}
		.st3{fill:#FF0000;}
		.st4{fill:none;}
		.st5{fill:none;stroke:#1616F7;}
		.st6{fill:#D010FF;}
		.st7{fill:#02AD0E;}
		.st8{fill:#3A3AF9;}
		.st9{fill:#757575;}
		.st10{fill:#A5A5A5;}
	]]>
	</style>
		<g id="Layer_1">
			<polygon class="st6" points="67.8,207.4 74.2,217.6 74.2,201 61.9,201 61.9,218.2 "/>
			<path class="st3" d="M211.9,228.1H66.8c-9.1,0-16.3-3.7-16.3-8.3v-10.6c0-4.6,7.3-8.3,16.3-8.3h136.1h9.2v-4.6H60
				c-9.7,0-17.5,4.9-17.5,10.9v14.1c0,6,7.9,10.9,17.5,10.9h152L211.9,228.1L211.9,228.1z"/>
			<path class="st0" d="M205.3,200.8c0,0-20.7,11.1-0.7,27.4"/>
			<g>
				<polygon class="st6" points="190.3,170 183.8,180.2 183.8,163.6 196.1,163.6 196.1,180.8 "/>
				<path class="st1" d="M46.1,190.6l145.2,0.2c9.1,0,16.4-3.7,16.4-8.3v-10.6c0-4.6-7.3-8.3-16.3-8.3l-136.1-0.2h-9.2v-4.6l152,0.2
					c9.7,0,17.5,5,17.5,11V184c0,6-7.9,10.9-17.5,10.9l-152-0.2V190.6L46.1,190.6z"/>
				<path class="st5" d="M52.7,163.2c0,0,20.6,11.2,0.6,27.4"/>
			</g>
			<path class="st10" d="M116.4,96.1"/>
			<g>
				<rect x="76.1" y="142.5" class="st9" width="100" height="15.3"/> 
				<rect x="98" y="116.7" class="st9" width="7.3" height="25.6"/> 
			</g>
			<path class="st8" d="M141.4,119.9c-2.6,0.3-5.2,0.5-7.9,0.5c-31.3,0-56.6-21.6-56.6-48.3c0-26.7,25.3-48.4,56.6-48.4
				c2.7,0,5.4,0.2,7.9,0.5v-8.7c-2.4-0.2-5-0.3-7.5-0.3c-37.7,0-68.4,25.7-68.4,57.4c0,31.7,30.6,57.4,68.5,57.4
				c2.6,0,5-0.1,7.5-0.3V119.9z"/>
			<ellipse class="st2" cx="133.6" cy="72.5" rx="45.5" ry="38.3"/> 
			<g>
				<path class="st7" d="M131,39.3c0,0-26.9,6.1-32.5,16.6c-5.7,10.5,8.1,21.3,14.9,20.2c6.8-1.2,6.6-17.8,11-20.6
					C128.6,52.6,142.7,36,131,39.3z"/>
				<path class="st7" d="M148.7,44.6c-11.6,1.5-14.7,20.4-4.4,23.7c10.3,3.2,12.7,7.3,14.7-5.7C161.1,49.4,151.1,44.3,148.7,44.6z"
					/>
				<path class="st7" d="M130.7,88.3c2.4,8.7-6.2,17.6,6.2,11.8c12.4-5.8,12-10.9,8.6-13.8c-3.4-2.9-5.5-6.1-10-5.1
					C131,82.2,130.7,88.3,130.7,88.3z"/>
				<path class="st7" d="M111,94.5c3.1-3.2,7.2-7.3,7.6-8.3c0.3-1-5.9-2.6-5.9-2.6s-4.1,3.2-5.9,0.3c-1.7-2.9-4.8,3.2-4.1,8
					c0.7,4.8-1,6.7,4.4,6.7c5.5,0,3.8-4.2,3.4-5.1"/>
				<path class="st7" d="M171.8,76.4c-1.1-6.1,1.3,7.5-5,12.8c-6.3,5.4-6.3,5.4-6.3,5.4s-3.7,3.8-5.1,3.1c-1.4-0.7-4,2,0-3.6
					c4-5.6,5.9-6.8,7.2-10c1.4-3.2,2.2-3,3.9-7.9c1.7-4.8,4.2-6,4.2-6"/>
			</g>
			<rect class="st4" width="250" height="250"/> 
		</g>
	</svg>
