<?xml version="1.0" encoding="utf-8"?>
<!-- Generator: Adobe Illustrator 11.0, SVG Export Plug-In . SVG Version: 6.0.0 Build 78)  -->
<!DOCTYPE svg PUBLIC "-//W3C//DTD SVG 1.0//EN"    "http://www.w3.org/TR/2001/REC-SVG-20010904/DTD/svg10.dtd" [
	<!ENTITY ns_flows "http://ns.adobe.com/Flows/1.0/">
	<!ENTITY ns_svg "http://www.w3.org/2000/svg">
	<!ENTITY ns_xlink "http://www.w3.org/1999/xlink">
]>
<svg  xmlns="&ns_svg;" xmlns:xlink="&ns_xlink;" xmlns:a="http://ns.adobe.com/AdobeSVGViewerExtensions/3.0/"
	 width="197.5" height="223.5" viewBox="0 0 197.5 223.5" style="overflow:visible;enable-background:new 0 0 197.5 223.5"
	 xml:space="preserve">
	<style type="text/css">
	<![CDATA[
		.st0{fill:#EF1448;}
		.st1{fill:#8BD3E5;}
		.st2{fill:#FCFCFC;stroke:#EF1448;}
		.st3{fill:#33A02C;}
	]]>
	</style>
		<g id="Layer_1">
			<g>
				<g>
					<path class="st0" d="M99.1,0.5c-23.9,0-43.3,49.8-43.3,111.3c0,61.4,19.4,111.3,43.3,111.3c23.9,0,43.3-49.8,43.3-111.3
						C142.4,50.3,123,0.5,99.1,0.5z M99.7,218.7c-18,0-32.6-42.9-32.6-95.8c0-52.9,14.6-95.8,32.6-95.8c18,0,32.6,42.9,32.6,95.8
						C132.3,175.8,117.7,218.7,99.7,218.7z"/>
				</g>
			</g>
			<g>
				<g>
					<path class="st0" d="M122.4,81.4C70.5,45.9,17.1,32.4,3.3,51.2c-11,15,6.3,45.9,40.1,75.9C16.7,102.3,3.3,77.4,12.3,65.2
						C24.1,49.1,70.1,61,115.1,91.7c45,30.7,71.8,68.7,60,84.8c-8.8,12.1-36.9,8.4-69.4-7.1c39.8,20.1,75,25.3,85.8,10.5
						C205.3,161,174.4,117,122.4,81.4z M43.4,127.1c8.4,7.8,18.1,15.6,28.9,22.9c11.3,7.7,22.6,14.2,33.4,19.4
						c-10.9-5.5-22.1-12.1-33.3-19.8C61.8,142.3,52,134.7,43.4,127.1z"/>
				</g>
			</g>
			<circle class="st3" cx="100.2" cy="122.4" r="18.4"/> 
			<g>
				<g>
					<path class="st1" d="M98,130.5c1.7-0.1,4.1,2,9.3,1.3c3.7-0.5,5.5,0.3,6.3,0.7c2.3-2.8,3.7-6.2,3.7-10c0-7.2-5-13.4-11.8-15.5
						l0.6,2.6c1.9,4.2-2.6,4.2-4.6,8.3c-2,4.1-6.4,5.6-7.1,0.2c-0.6-4.4-5.1-5.9-6.9-6.3c-2.6,2.9-4.2,6.6-4.2,10.6
						c0,6.9,4.6,12.9,11,15.2C94.7,136.1,96.5,130.6,98,130.5z"/>
				</g>
			</g>
			<path class="st3" d="M106.1,120.4c0,0-1.2,1.4-0.8,3c0.3,1.6-9.1-0.3-0.6,3.2c8.5,3.5,4.3-1,4.3-1.9
				C109,123.8,115.2,116.2,106.1,120.4z"/>
			<g>
				<g>
					<path class="st0" d="M193.7,48c-14.6-18.3-67.3-2.8-117.7,34.6C25.5,120-3.5,165.2,11.2,183.5c11.5,14.4,46.4,7.9,85.2-13.6
						c-31.7,16.7-59.6,21.3-68.9,9.6c-12.5-15.6,12.7-54.6,56.3-86.9c43.6-32.3,89.1-45.9,101.6-30.2c9.5,11.9-2.8,37.2-28.4,62.9
						C189.3,94.2,205.3,62.6,193.7,48z M96.4,169.9c10.6-5.6,21.7-12.5,32.6-20.6c10.4-7.7,19.8-15.9,27.9-24
						c-8.3,8-17.7,15.9-28,23.6C118,157,107.1,164,96.4,169.9z"/>
				</g>
			</g>
			<path class="st2" d="M41.8,147.6c0,9.1-7.3,16.4-16.4,16.4C16.4,164,9,156.6,9,147.6c0-9.1,7.4-16.4,16.4-16.4
				C34.5,131.2,41.8,138.5,41.8,147.6z"/>
		</g>
	</svg>
