<svg xmlns="http://www.w3.org/2000/svg" viewBox="0 0 68.09 82.96"><defs><style>.cls-1{fill:#0072bc;}.cls-2{fill:#fff;stroke:#0072bc;}.cls-3{fill:#0db14b;}.cls-4{fill:#7bd3f7;}</style></defs><title>Asset 9</title><g id="Layer_2" data-name="Layer 2"><g id="Layer_1-2" data-name="Layer 1"><path class="cls-1" d="M34.49,0C26.27,0,19.6,18.57,19.6,41.48S26.27,83,34.49,83,49.37,64.38,49.37,41.48,42.7,0,34.49,0Zm.2,81.33c-6.19,0-11.21-16-11.21-35.7s5-35.72,11.21-35.72S45.9,25.9,45.9,45.63,40.88,81.33,34.69,81.33Z"/><path class="cls-1" d="M67,17.37c-4.68-7.06-23.07-2.18-41,10.89S-2.82,57.66,1.87,64.71,25,66.91,42.93,53.83,71.68,24.43,67,17.37ZM43.5,51.5c-15.57,11.3-31.31,15.75-35.16,10s5.66-19.67,21.22-31,31.32-15.76,35.16-9.95S59.07,40.2,43.5,51.5Z"/><path class="cls-1" d="M43,28.17C25.13,14.93,6.79,9.88,2,16.89c-3.77,5.56,2.12,17,13.61,28.12C6.58,35.85,2.05,26.66,5.12,22.12,9.18,16.12,25,20.54,40.46,32S65.15,57.6,61.09,63.59c-3,4.5-12.69,3.15-23.83-2.63,13.66,7.48,25.75,9.4,29.48,3.9C71.49,57.84,60.87,41.42,43,28.17ZM15.65,45a87.59,87.59,0,0,0,10.1,8.71A87.16,87.16,0,0,0,37.26,61a101.74,101.74,0,0,1-11.48-7.38A103.41,103.41,0,0,1,15.65,45Z"/><path class="cls-2" d="M11.78,52.83a5.89,5.89,0,0,1-5.64,6.11,6.14,6.14,0,0,1,0-12.23A5.89,5.89,0,0,1,11.78,52.83Z"/><path class="cls-3" d="M41.18,42.44a6.33,6.33,0,1,1-6.32-6.62A6.48,6.48,0,0,1,41.18,42.44Z"/><path class="cls-4" d="M34.1,45.45c.61-.05,1.42.73,3.2.49a3.11,3.11,0,0,1,2.16.26,6.19,6.19,0,0,0,1.26-3.74,6,6,0,0,0-4.08-5.77l.2,1c.65,1.56-.9,1.56-1.59,3.09s-2.21,2.1-2.45.08a3,3,0,0,0-2.38-2.34,6.13,6.13,0,0,0-1.44,4,6.06,6.06,0,0,0,3.79,5.66C32.94,47.55,33.58,45.49,34.1,45.45Z"/><path class="cls-3" d="M36.87,41.69a1.51,1.51,0,0,0-.28,1.11c.11.61-3.14-.11-.22,1.2s1.46-.37,1.49-.71S40,40.14,36.87,41.69Z"/></g></g></svg>