<?xml version="1.0" encoding="utf-8"?>
<!-- Generator: Adobe Illustrator 11.0, SVG Export Plug-In . SVG Version: 6.0.0 Build 78)  -->
<!DOCTYPE svg PUBLIC "-//W3C//DTD SVG 1.0//EN"    "http://www.w3.org/TR/2001/REC-SVG-20010904/DTD/svg10.dtd" [
	<!ENTITY ns_flows "http://ns.adobe.com/Flows/1.0/">
	<!ENTITY ns_svg "http://www.w3.org/2000/svg">
	<!ENTITY ns_xlink "http://www.w3.org/1999/xlink">
]>
<svg  xmlns="&ns_svg;" xmlns:xlink="&ns_xlink;" xmlns:a="http://ns.adobe.com/AdobeSVGViewerExtensions/3.0/"
	 width="293.3" height="220.3" viewBox="0 0 293.3 220.3" style="overflow:visible;enable-background:new 0 0 293.3 220.3"
	 xml:space="preserve">
	<style type="text/css">
	<![CDATA[
		.st0{fill:#EF1448;}
		.st1{fill:#8BD3E5;}
		.st2{fill:#FCFCFC;stroke:#EF1448;}
		.st3{fill:#F6F623;stroke:#1A9535;stroke-width:5;}
		.st4{fill:#33A02C;}
		.st5{fill:none;stroke:#1A9535;stroke-width:5;}
	]]>
	</style>
		<g id="Layer_1">
			<g>
				<path class="st3" d="M257.4,187.5l-25.7-22.3l17.7-27c0,0,13.1-13,11.3-30.5l29.8,21.9c0,0-9.1,39.3-28.7,56.4
					C259.9,187.4,258.5,187.8,257.4,187.5c-7.3-2,3.6-38.2,3.6-38.2"/>
			</g>
			<g>
				<path class="st3" d="M36.4,184.9l25.5-22.5L44,135.6c0,0-13.2-12.9-11.6-30.4L2.8,127.3c0,0,9.5,39.2,29.3,56.2
					C34,184.8,35.4,185.2,36.4,184.9c7.3-2.1-4-38.1-4-38.1"/>
			</g>
			<path class="st3" d="M238.7,128.6c-10.1,35.6-46.6,62-90.2,62c-44.6,0-81.9-27.6-91-64.5l-25,20.7
				c17.4,41.5,62.7,71.1,115.9,71.1c52.1,0,96.7-28.4,114.8-68.5L238.7,128.6z"/>
			<g>
				<g>
					<path class="st5" d="M147.3,2.5c-46.7,0.7-84,39.7-83.3,87.1c0.6,37.1,24.3,68.4,57.1,79.8c5.2-4.3,11.2-16.6,4.9-19.5
						c-32-10.4-25.5-30.7-25.5-30.7c12.4,20.9,29.5,18.6,29.5,18.6l-11.3-12.8c12.1,1.8,19.6,12.1,19.6,12.1
						c2.7,8.5,1.4,28.8,0.8,36.3c3.6,0.4,7.2,0.6,10.9,0.6c2.4,0,4.8-0.2,7.1-0.4c-0.3-7.5-1-28.6,2.1-37.1c0,0,7.9-10.1,20-11.6
						l-11.7,12.6c0,0,17,3,30.1-17.8c0,0,5.8,20.9-26.6,30.2c-6.3,2.6-0.9,15.2,4.1,19.9c34.3-11.4,58.8-44.4,58.2-82.9
						C232.5,39.6,194.1,1.8,147.3,2.5z"/>
				</g>
			</g>
			<g>
				<g>
					<path class="st0" d="M149.7,20.8c-10.6,0-19.1,22-19.1,49.1c0,27.1,8.6,49.1,19.1,49.1c10.5,0,19.1-22,19.1-49.1
						C168.8,42.8,160.2,20.8,149.7,20.8z M149.9,117.1c-8,0-14.4-18.9-14.4-42.3c0-23.3,6.4-42.3,14.4-42.3
						c7.9,0,14.4,18.9,14.4,42.3C164.3,98.2,157.9,117.1,149.9,117.1z"/>
				</g>
			</g>
			<g>
				<g>
					<path class="st0" d="M160,56.5c-22.9-15.7-46.5-21.7-52.6-13.4c-4.8,6.6,2.7,20.1,17.5,33.3c-11.6-10.8-17.4-21.7-13.5-27.1
						c5.2-7.1,25.5-1.9,45.4,11.7c19.8,13.6,31.7,30.3,26.5,37.4c-3.9,5.3-16.3,3.7-30.6-3.1c17.5,8.9,33.1,11.1,37.8,4.6
						C196.5,91.6,182.9,72.2,160,56.5z M124.9,76.4c3.8,3.5,8.1,7,13,10.3c5,3.4,10,6.3,14.8,8.6c-4.8-2.4-9.8-5.4-14.7-8.7
						C133.1,83.3,128.7,79.9,124.9,76.4z"/>
				</g>
			</g>
			<circle class="st4" cx="150.2" cy="74.6" r="8.1"/> 
			<g>
				<g>
					<path class="st1" d="M149.2,78.2c0.8-0.1,1.8,0.9,4.1,0.6c1.6-0.2,2.4,0.1,2.8,0.3c1-1.2,1.6-2.8,1.6-4.4
						c0-3.2-2.2-5.9-5.2-6.8l0.3,1.1c0.8,1.9-1.2,1.9-2,3.7c-0.9,1.8-2.8,2.5-3.1,0.1c-0.3-1.9-2.3-2.6-3.1-2.8
						c-1.1,1.3-1.8,2.9-1.8,4.7c0,3.1,2,5.7,4.9,6.7C147.7,80.6,148.5,78.2,149.2,78.2z"/>
				</g>
			</g>
			<path class="st4" d="M152.7,73.7c0,0-0.5,0.6-0.4,1.3c0.1,0.7-4-0.1-0.3,1.4c3.7,1.6,1.9-0.4,1.9-0.8
				C154,75.2,156.8,71.9,152.7,73.7z"/>
			<g>
				<g>
					<path class="st0" d="M191.4,41.8c-6.5-8.1-29.7-1.2-52,15.3c-22.2,16.5-35,36.4-28.6,44.5c5.1,6.3,20.5,3.5,37.6-6
						c-14,7.4-26.3,9.4-30.4,4.2c-5.5-6.9,5.6-24.1,24.8-38.3c19.2-14.3,39.3-20.2,44.8-13.3c4.2,5.2-1.2,16.3-12.3,27.6
						C189.5,62,196.5,48.2,191.4,41.8z M148.5,95.6c4.7-2.5,9.6-5.5,14.4-9.1c4.7-3.5,8.9-7.1,12.5-10.8c-3.7,3.6-7.9,7.2-12.6,10.6
						C158,89.8,153.2,92.9,148.5,95.6z"/>
				</g>
			</g>
			<path class="st2" d="M124.4,85.7c0,4-3.2,7.2-7.2,7.2c-4,0-7.2-3.2-7.2-7.2c0-4,3.2-7.2,7.2-7.2
				C121.2,78.5,124.4,81.7,124.4,85.7z"/>
			<g>
				<g>
					<path d="M48.3,158.6c3.9-2.7,5.9-4,9.8-6.8c2,2.4,3.1,3.6,5.2,5.9c3.7,4,4.2,7.2,1.3,9.9c-2.9,2.7-6.5,1.9-10.8-2.7
						C51.6,162.4,50.5,161.2,48.3,158.6z M53.1,162.6c0.4,0.5,0.6,0.7,1,1.2c1,1.1,1.9,1.6,2.8,1.5c0.9-0.1,2.1-0.7,3.5-1.9
						s2.3-2.2,2.5-3c0.2-0.8-0.1-1.7-1-2.7c-0.4-0.4-0.6-0.6-1-1.1C57.8,159,56.2,160.2,53.1,162.6z"/>
					<path d="M73.2,182.5c-1.2-0.5-2.2-1.2-3.2-2c-1.4-1.1-1.8-2.8-1.9-2.9c-0.2-0.2-2.3-0.6-3.5-1.7c-2.3-2.1-2.8-3.8-1.6-5
						c0.9-0.9,2.6-0.5,5,0.9c2.2,1.3,3.5,1.7,3.9,1.2c0.6-0.7,0.4-1.4-0.6-2.3c-1.2-1.1-2.1-1.3-2.7-0.7c-0.2,0.2-0.4,0.5-0.5,1
						c-0.7-0.8-1-1.1-1.6-1.9c0.2-0.2,0.3-0.4,0.5-0.6c1-1,2.9,0,5.8,2.5c2.8,2.4,3.8,4,3,5c-1.4,1.6-2,2.4-3.4,4
						c-0.3,0.4-0.3,0.8,0.1,1.2c0.1,0.1,0.4,0.2,0.7,0.3C73.3,182,73.2,182.2,73.2,182.5z M70.9,174.2c-0.4,0-0.8-0.1-1.2-0.3
						c-1-0.4-1.9-0.3-2.5,0.3c-0.8,0.8-0.9,1.5-0.4,2c0.8,0.7,1.6,0.7,2.4-0.2C69.8,175.3,70.2,175,70.9,174.2z"/>
					<path d="M84.5,190.9c-1.7-1.1-2.5-1.6-4.2-2.8c1.4-2.1,2.2-3.1,3.6-5.2c0.4-0.5,0.3-1-0.1-1.3c-0.4-0.3-1-0.4-1.6-0.2
						c-0.6,0.2-1.2,0.6-1.6,1.1c-1.1,1.5-1.7,2.3-2.8,3.8c-1.6-1.2-2.5-1.8-4.1-3c2.2-2.7,3.2-4.1,5.4-6.8c1.3,1,2.6,1.9,3.9,2.7
						c-0.4,0.5-0.6,0.8-1,1.3c1.6-0.2,3,0.2,4.4,1.1c1.8,1.2,2.3,2.4,1.5,3.6C86.7,187.5,85.9,188.7,84.5,190.9z"/>
					<path d="M86.9,192.4c1.8-3,2.7-4.5,4.4-7.4c1.2,0.7,2.6,1.4,4,2.1c-1.7,3.1-2.5,4.7-4.2,7.8C89.5,193.9,88.6,193.4,86.9,192.4z
						 M95,183.2c1.2,0.7,1.6,1.3,1.2,2s-1.2,0.7-2.4,0c-1.2-0.7-1.6-1.4-1.2-2.1S93.9,182.5,95,183.2z"/>
					<path d="M105.8,201.5c-1.2-0.2-2.3-0.4-3.3-0.9c-1.5-0.6-2.3-2.1-2.4-2.2c-0.2-0.1-2.2,0.1-3.5-0.5c-2.5-1.2-3.4-2.7-2.6-4.2
						c0.6-1.1,2.1-1.3,4.5-0.7c2.2,0.6,3.5,0.5,3.7-0.1c0.4-0.8,0-1.5-1.1-2c-1.3-0.6-2.1-0.6-2.5,0.2c-0.1,0.2-0.2,0.6-0.2,1.1
						c-0.8-0.5-1.1-0.8-1.9-1.3c0.1-0.3,0.2-0.5,0.3-0.7c0.6-1.2,2.5-1,5.7,0.5c3,1.4,4.3,2.6,3.9,3.8c-0.8,2-1.2,2.9-2,4.9
						c-0.2,0.5-0.1,0.9,0.4,1.1c0.1,0.1,0.4,0.1,0.7,0.1C105.7,200.9,105.7,201.1,105.8,201.5z M101.6,194.3
						c-0.4,0.1-0.7,0.1-1.1,0.1c-1-0.1-1.7,0.3-2.1,1.1c-0.5,1-0.4,1.7,0.2,2c0.9,0.4,1.6,0.1,2-0.9
						C101,195.7,101.2,195.3,101.6,194.3z"/>
					<path d="M126.6,199.3c-0.9-0.1-1.3-0.1-2.2-0.2c0.2-0.3,0.3-0.5,0.3-0.7c0.3-1.3-0.6-2.2-2.8-2.8c-1.7-0.4-2.7-0.2-2.9,0.7
						c-0.2,0.7,0.6,1.6,2.4,2.6c3.5,1.9,5.2,3.7,4.8,5.6c-0.2,1.1-0.9,1.9-2.2,2.3c-1.3,0.4-2.8,0.4-4.7-0.1
						c-4.1-1.1-5.9-2.9-5.2-5.1c0.1-0.2,0.1-0.4,0.3-0.6c0.9,0.1,1.4,0.2,2.3,0.3c-0.3,0.4-0.5,0.8-0.6,1.2
						c-0.4,1.4,0.6,2.5,2.9,3.1c1.9,0.5,3,0.2,3.2-0.8c0.2-0.8-0.8-1.7-2.8-2.9c-3-1.7-4.1-3.5-3.5-5.3c0.3-1,1.1-1.7,2.2-2
						c1.2-0.3,2.5-0.2,4.1,0.2C125.6,195.6,127.1,197,126.6,199.3z"/>
					<path d="M136.8,205.6c0.7,0.2,1.1,0.4,1.8,0.6c0,0.1,0,0.2,0,0.3c-0.2,2.2-2,3.2-5.5,2.7c-4.1-0.6-5.9-2.4-5.4-5.3
						c0.3-1.4,1-2.5,2.3-3.1s2.8-0.8,4.7-0.6c2.7,0.4,3.9,1.4,3.8,3.2c-0.8,0.2-1.2,0.3-2.1,0.5c0-0.3,0.1-0.5,0.1-0.8
						c0.1-1.2-0.4-1.9-1.5-2.1c-1.5-0.2-2.4,0.9-2.7,3.3c-0.2,1.5-0.2,2.6,0.1,3.2c0.3,0.6,0.8,1,1.8,1.1c1.7,0.2,2.6-0.5,2.7-2
						C136.9,206.4,136.9,206.1,136.8,205.6z"/>
					<path d="M140,209.8c0.2-3.5,0.4-5.2,0.6-8.7c1.3,0.1,2.7,0.1,4.2,0c-0.1,3.6-0.2,5.4-0.3,8.9C142.7,210,141.8,209.9,140,209.8z
						 M142.9,197.9c1.3,0.1,1.9,0.5,1.9,1.2s-0.7,1.1-2,1.1c-1.3-0.1-1.9-0.5-1.9-1.3S141.6,197.8,142.9,197.9z"/>
					<path d="M155.8,206.6c0.7,0.1,1.1,0.1,1.8,0.2c0,2-1.7,3.2-4.9,3.3c-4.2,0.2-6.2-1.4-6.2-4.3c0-1.4,0.6-2.5,1.6-3.5
						c1-0.9,2.3-1.4,3.9-1.4c3.3-0.1,5.1,1.3,5.4,4.6c-2.5,0.2-3.8,0.3-6.4,0.4c0.1,2.3,0.9,3.4,2.6,3.3c1.5-0.1,2.3-0.8,2.2-2.1
						C155.9,207.1,155.9,206.9,155.8,206.6z M151.1,205c1,0,1.6-0.1,2.6-0.1c-0.1-2-0.6-3-1.4-3c-0.7,0-1.1,0.8-1.2,2.3
						C151.1,204.5,151.1,204.7,151.1,205z"/>
					<path d="M171.5,207.6c-1.8,0.4-2.7,0.6-4.5,0.9c-0.4-2.5-0.6-3.8-1-6.3c-0.1-0.6-0.4-0.9-0.9-0.8c-0.5,0.1-0.9,0.4-1.2,1
						c-0.3,0.6-0.4,1.2-0.3,1.9c0.3,1.9,0.4,2.8,0.6,4.7c-1.8,0.3-2.7,0.4-4.5,0.6c-0.3-3.5-0.5-5.2-0.8-8.7
						c1.4-0.2,2.8-0.4,4.2-0.7c0.1,0.6,0.1,1,0.2,1.6c0.9-1.2,2.1-2,3.6-2.2c1.9-0.4,3,0.2,3.3,1.6C170.7,203.7,171,205,171.5,207.6
						z"/>
					<path d="M181.7,200.9c0.8-0.1,1.2-0.1,1.9-0.2c0.1,0.1,0.1,0.2,0.1,0.3c0.7,2.1-0.7,3.8-4.1,4.8c-4.1,1.2-6.4,0.2-7-2.7
						c-0.3-1.4,0-2.7,0.9-3.8c0.9-1.1,2.3-1.9,4.1-2.5c2.6-0.8,4.2-0.4,4.8,1.4c-0.7,0.5-1.1,0.8-1.8,1.3c-0.1-0.3-0.1-0.5-0.2-0.8
						c-0.4-1.2-1.1-1.6-2.2-1.3c-1.5,0.4-1.9,1.8-1.3,4.2c0.4,1.5,0.8,2.4,1.3,2.9c0.5,0.5,1.2,0.5,2.1,0.3c1.6-0.5,2.2-1.5,1.8-2.9
						C182,201.7,181.9,201.4,181.7,200.9z"/>
					<path d="M193.6,197.1c0.7-0.2,1.1-0.3,1.9-0.4c0.6,1.9-0.6,3.6-3.7,4.9c-4,1.7-6.5,0.9-7.4-1.8c-0.4-1.3-0.3-2.6,0.4-3.8
						c0.7-1.2,1.8-2.1,3.4-2.8c3.2-1.3,5.5-0.6,6.8,2.4c-2.4,1.1-3.7,1.7-6.1,2.6c0.8,2.1,2,2.9,3.6,2.2c1.5-0.6,2-1.6,1.5-2.8
						C193.8,197.5,193.7,197.3,193.6,197.1z M188.5,197.3c1-0.4,1.5-0.6,2.5-1c-0.8-1.9-1.5-2.7-2.3-2.3c-0.7,0.3-0.8,1.2-0.4,2.6
						C188.3,196.8,188.4,197,188.5,197.3z"/>
					<path d="M213.6,184.1c0.8-0.4,1.2-0.6,2.1-1c0.2,0.2,0.4,0.4,0.5,0.6c0.7,0.9,0.7,2.1,0,3.4c-0.7,1.3-2,2.6-3.8,3.8
						c-4.6,3-8,2.5-9.8-1c-0.9-1.6-1-3.3-0.3-5c0.7-1.7,2-3.2,3.9-4.4c3-2,5.2-2.1,6.7-0.1c-0.6,0.7-0.8,1.1-1.4,1.8
						c-0.2-0.3-0.3-0.5-0.4-0.7c-1-1.4-2.3-1.6-4-0.5c-1.8,1.2-1.7,3.3,0.2,6.4c1.6,2.7,3.5,3.4,5.7,2c0.9-0.6,1.5-1.3,1.8-2.1
						s0.2-1.6-0.3-2.3C214.2,184.8,213.9,184.5,213.6,184.1z"/>
					<path d="M216.2,173.2c3,3.7,4.5,5.5,7.5,9.2c-1.6,1.3-2.4,1.9-4.1,3.1c-2.8-3.8-4.2-5.6-7-9.4
						C213.7,175.4,214.9,174.4,216.2,173.2z"/>
					<path d="M229.7,165.3c2.6,2.4,3.9,3.6,6.6,6.1c-1.5,1.5-2.3,2.2-3.9,3.7c-0.4-0.4-0.6-0.6-1-1c-0.2,1.5-1,3-2.4,4.2
						c-1.9,1.7-3.4,1.9-4.4,0.8c-1.7-2-2.6-3-4.3-5c1.2-1.1,2.4-2.2,3.5-3.3c1.8,2,2.8,3,4.6,4.9c0.4,0.4,0.8,0.4,1.3,0
						c1.2-1,1-2.3-0.4-3.7c-1.2-1.2-1.8-1.9-3.1-3.1C227.5,167.8,228.6,166.6,229.7,165.3z"/>
					<path d="M238.4,169.3c-3.5-3.1-5.3-4.7-8.9-7.8c0.6-0.6,1.7-1.8,3.3-3.7c1.3,1.1,2,1.6,3.3,2.6c0-1.2,0.5-2.2,1.2-3.1
						c2.2-2.5,4.5-3.1,6.9-1.4c2.7,1.8,2.6,4.5-0.3,7.7c-1.4,1.5-3,2.5-4.8,2.8c0.1,0.8,0.1,1.1,0.2,1.9
						C239,168.7,238.8,168.9,238.4,169.3z M237.3,159.3c-0.8,0.9-0.4,1.9,1.2,3.2c1.9,1.5,3.2,1.8,4,0.9c0.7-0.8,0.5-1.5-0.4-2.3
						c-0.7-0.5-1-0.8-1.7-1.3c-0.4-0.3-0.6-0.4-1-0.7C238.5,158.6,237.8,158.7,237.3,159.3z"/>
				</g>
			</g>
		</g>
	</svg>
