<?xml version="1.0" encoding="utf-8"?>
<!-- Generator: Adobe Illustrator 22.0.1, SVG Export Plug-In . SVG Version: 6.00 Build 0)  -->
<svg version="1.1" baseProfile="tiny" id="Layer_1" xmlns="http://www.w3.org/2000/svg" xmlns:xlink="http://www.w3.org/1999/xlink"
	 x="0px" y="0px" viewBox="0 0 300 300" xml:space="preserve">
<g>
	<path fill="#FBE93C" stroke="#0072BC" stroke-width="3" d="M262,226.6l-25.7-22.3l17.7-27c0,0,13.1-13,11.3-30.5l29.8,21.9
		c0,0-9.1,39.3-28.7,56.4C264.4,226.5,263,226.9,262,226.6c-7.3-2,3.6-38.2,3.6-38.2"/>
</g>
<g>
	<path fill="#FBE93C" stroke="#0072BC" stroke-width="3" d="M41,223.9l25.5-22.5l-17.9-26.8c0,0-13.2-12.9-11.6-30.4L7.4,166.4
		c0,0,9.5,39.2,29.3,56.2C38.5,223.8,40,224.2,41,223.9c7.3-2.1-4-38.1-4-38.1"/>
</g>
<path fill="#FBE93C" stroke="#0072BC" stroke-width="3" d="M243.2,167.6c-10.1,35.6-46.6,62-90.2,62c-44.6,0-81.9-27.6-91-64.5
	l-25,20.7c17.4,41.5,62.7,71.1,115.9,71.1c52.1,0,96.7-28.4,114.8-68.5L243.2,167.6z"/>
<g>
	<path fill="none" stroke="#0072BC" stroke-width="3" d="M153.3,41.5c-46.7,0-84.6,38.4-84.6,85.8c0,37.1,23.3,68.8,55.8,80.7
		c5.3-4.2,11.4-16.4,5.2-19.4c-31.8-10.9-25-31.1-25-31.1c12.1,21.1,29.2,19.1,29.2,19.1l-11.1-12.9c12,2,19.4,12.4,19.4,12.4
		c2.6,8.5,1,28.8,0.3,36.3c3.6,0.5,7.2,0.7,10.9,0.7c2.4,0,4.8-0.1,7.1-0.3c-0.2-7.5-0.5-28.6,2.7-37.1c0,0,8-10,20.2-11.2
		l-11.9,12.4c0,0,17,3.3,30.4-17.3c0,0,5.4,21-27,29.8c-6.4,2.5-1.1,15.2,3.8,19.9c34.4-10.9,59.4-43.5,59.4-82
		C237.9,80,200,41.5,153.3,41.5z"/>
</g>
<g>
	<g>
		<path d="M53,196.7c3.9-2.7,5.9-4,9.8-6.7c2,2.4,3.1,3.6,5.2,5.9c3.7,4,4.2,7.2,1.3,9.9c-2.9,2.7-6.5,1.9-10.8-2.7
			C56.3,200.5,55.2,199.3,53,196.7z M57.8,200.7c0.4,0.5,0.6,0.7,1,1.2c1,1.1,1.9,1.6,2.8,1.5c0.9-0.1,2.1-0.7,3.5-1.9
			c1.4-1.2,2.3-2.2,2.5-3c0.2-0.8-0.1-1.7-1-2.7c-0.4-0.4-0.6-0.6-1-1.1C62.5,197.1,61,198.3,57.8,200.7z"/>
		<path d="M77.9,220.6c-1.2-0.5-2.2-1.2-3.2-2c-1.4-1.1-1.8-2.8-1.9-2.9c-0.2-0.2-2.3-0.6-3.5-1.7c-2.3-2.1-2.8-3.8-1.6-5
			c0.9-0.9,2.6-0.5,5,0.9c2.2,1.3,3.5,1.7,3.9,1.2c0.6-0.7,0.4-1.4-0.6-2.3c-1.2-1.1-2.1-1.3-2.7-0.7c-0.2,0.2-0.4,0.5-0.5,1
			c-0.7-0.8-1-1.1-1.6-1.9c0.2-0.2,0.3-0.4,0.5-0.6c1-1,2.9,0,5.8,2.5c2.8,2.4,3.8,4,3,5c-1.4,1.6-2,2.4-3.4,4
			c-0.3,0.4-0.3,0.8,0.1,1.2c0.1,0.1,0.4,0.2,0.7,0.3C78,220.1,78,220.3,77.9,220.6z M75.6,212.3c-0.4,0-0.8-0.1-1.2-0.3
			c-1-0.4-1.9-0.3-2.5,0.3c-0.8,0.8-0.9,1.5-0.4,2c0.8,0.7,1.6,0.7,2.4-0.2C74.6,213.4,74.9,213.1,75.6,212.3z"/>
		<path d="M89.3,229c-1.7-1.1-2.5-1.6-4.2-2.8c1.4-2.1,2.2-3.1,3.6-5.2c0.4-0.5,0.3-1-0.1-1.3c-0.4-0.3-1-0.4-1.6-0.2
			c-0.6,0.2-1.2,0.6-1.6,1.1c-1.1,1.5-1.7,2.3-2.8,3.8c-1.6-1.2-2.5-1.8-4.1-3.1c2.2-2.7,3.2-4.1,5.4-6.8c1.3,1,2.6,1.9,3.9,2.7
			c-0.4,0.5-0.6,0.8-1,1.3c1.6-0.2,3,0.2,4.4,1.1c1.8,1.2,2.3,2.4,1.5,3.6C91.4,225.6,90.7,226.8,89.3,229z"/>
		<path d="M91.7,230.5c1.8-3,2.7-4.5,4.4-7.4c1.2,0.7,2.6,1.4,4,2.1c-1.7,3.1-2.5,4.7-4.2,7.8C94.2,232,93.3,231.5,91.7,230.5z
			 M99.8,221.3c1.2,0.7,1.6,1.3,1.2,2c-0.4,0.7-1.2,0.7-2.4,0c-1.2-0.7-1.6-1.4-1.2-2C97.8,220.6,98.6,220.6,99.8,221.3z"/>
		<path d="M110.5,239.6c-1.2-0.1-2.3-0.4-3.3-0.9c-1.5-0.6-2.3-2.1-2.4-2.2c-0.2-0.1-2.2,0.1-3.5-0.5c-2.5-1.2-3.4-2.7-2.6-4.2
			c0.6-1.1,2.1-1.3,4.5-0.7c2.2,0.6,3.5,0.5,3.7-0.1c0.4-0.8,0-1.5-1.1-2c-1.3-0.6-2.1-0.6-2.5,0.2c-0.1,0.2-0.2,0.6-0.2,1.1
			c-0.8-0.5-1.1-0.8-1.9-1.3c0.1-0.3,0.2-0.5,0.3-0.7c0.6-1.2,2.5-1,5.7,0.5c3,1.4,4.3,2.6,3.9,3.8c-0.8,2-1.2,2.9-2,4.9
			c-0.2,0.5-0.1,0.9,0.4,1.1c0.1,0.1,0.4,0.1,0.7,0.1C110.4,239,110.4,239.2,110.5,239.6z M106.3,232.4c-0.4,0.1-0.7,0.1-1.1,0.1
			c-1-0.1-1.7,0.3-2.1,1.1c-0.5,1-0.4,1.7,0.2,2c0.9,0.4,1.6,0.1,2-0.9C105.7,233.8,105.9,233.4,106.3,232.4z"/>
		<path d="M131.4,237.4c-0.9-0.1-1.3-0.1-2.2-0.2c0.2-0.3,0.3-0.5,0.3-0.7c0.3-1.3-0.6-2.2-2.8-2.8c-1.7-0.4-2.7-0.2-2.9,0.7
			c-0.2,0.7,0.6,1.6,2.4,2.6c3.5,1.9,5.2,3.7,4.8,5.6c-0.2,1.1-0.9,1.9-2.2,2.3c-1.3,0.4-2.8,0.4-4.7-0.1c-4.1-1.1-5.9-2.9-5.2-5.1
			c0.1-0.2,0.1-0.4,0.3-0.6c0.9,0.1,1.4,0.2,2.3,0.3c-0.3,0.4-0.5,0.8-0.6,1.2c-0.4,1.4,0.6,2.5,2.9,3.1c1.9,0.5,3,0.2,3.2-0.8
			c0.2-0.8-0.8-1.7-2.8-2.9c-2.9-1.7-4.1-3.5-3.5-5.3c0.3-1,1.1-1.7,2.2-2c1.2-0.3,2.5-0.3,4.1,0.2
			C130.4,233.7,131.8,235.1,131.4,237.4z"/>
		<path d="M141.6,243.7c0.7,0.2,1.1,0.4,1.8,0.6c0,0.1,0,0.2,0,0.4c-0.2,2.2-2,3.2-5.5,2.7c-4.1-0.6-5.9-2.4-5.4-5.3
			c0.3-1.4,1-2.5,2.3-3.1c1.3-0.7,2.8-0.8,4.7-0.6c2.7,0.4,3.9,1.4,3.8,3.2c-0.8,0.2-1.2,0.3-2.1,0.5c0-0.3,0.1-0.5,0.1-0.8
			c0.1-1.2-0.4-1.9-1.5-2.1c-1.5-0.2-2.4,0.9-2.7,3.3c-0.2,1.5-0.2,2.6,0.1,3.2c0.3,0.6,0.8,1,1.8,1.1c1.7,0.2,2.6-0.5,2.7-2
			C141.6,244.5,141.6,244.2,141.6,243.7z"/>
		<path d="M144.7,247.9c0.2-3.5,0.4-5.2,0.6-8.7c1.3,0.1,2.7,0.1,4.2,0c-0.1,3.6-0.2,5.4-0.3,8.9C147.5,248.1,146.6,248,144.7,247.9
			z M147.6,235.9c1.3,0.1,1.9,0.5,1.9,1.2c0,0.8-0.7,1.1-2,1.1c-1.3-0.1-1.9-0.5-1.9-1.3C145.7,236.2,146.4,235.9,147.6,235.9z"/>
		<path d="M160.6,244.7c0.7,0.1,1.1,0.1,1.8,0.2c0,2-1.7,3.2-4.9,3.3c-4.2,0.2-6.2-1.4-6.2-4.3c0-1.4,0.6-2.5,1.6-3.4
			c1-0.9,2.3-1.4,3.9-1.4c3.3-0.1,5.1,1.3,5.4,4.6c-2.5,0.2-3.8,0.3-6.4,0.4c0.1,2.3,0.9,3.4,2.6,3.3c1.5-0.1,2.3-0.8,2.2-2.1
			C160.6,245.2,160.6,245,160.6,244.7z M155.8,243.1c1,0,1.6,0,2.6-0.1c-0.1-2-0.6-3-1.4-3c-0.7,0-1.1,0.8-1.2,2.3
			C155.9,242.6,155.9,242.8,155.8,243.1z"/>
		<path d="M176.2,245.7c-1.8,0.4-2.7,0.6-4.5,0.9c-0.4-2.5-0.6-3.8-1-6.3c-0.1-0.6-0.4-0.9-0.9-0.8c-0.5,0.1-0.9,0.4-1.2,1
			c-0.3,0.6-0.4,1.2-0.3,1.9c0.3,1.9,0.4,2.8,0.6,4.7c-1.8,0.3-2.7,0.4-4.5,0.6c-0.3-3.5-0.5-5.2-0.8-8.7c1.4-0.2,2.8-0.4,4.2-0.7
			c0.1,0.6,0.1,1,0.2,1.6c0.9-1.2,2.1-2,3.6-2.2c1.9-0.4,3,0.2,3.3,1.6C175.5,241.8,175.7,243.1,176.2,245.7z"/>
		<path d="M186.4,239c0.8-0.1,1.2-0.1,1.9-0.2c0.1,0.1,0.1,0.2,0.1,0.3c0.7,2.1-0.7,3.8-4.1,4.8c-4.1,1.2-6.4,0.2-7-2.7
			c-0.3-1.4,0-2.7,0.9-3.8c0.9-1.1,2.3-1.9,4.1-2.5c2.6-0.8,4.2-0.4,4.8,1.4c-0.7,0.5-1.1,0.8-1.8,1.3c-0.1-0.3-0.1-0.5-0.2-0.8
			c-0.4-1.2-1.1-1.6-2.2-1.3c-1.5,0.4-1.9,1.8-1.3,4.2c0.4,1.5,0.8,2.4,1.3,2.9c0.5,0.5,1.2,0.5,2.1,0.3c1.6-0.5,2.2-1.5,1.8-2.9
			C186.8,239.8,186.6,239.4,186.4,239z"/>
		<path d="M198.4,235.2c0.7-0.2,1.1-0.2,1.9-0.4c0.6,1.9-0.6,3.6-3.7,4.9c-4,1.7-6.5,0.9-7.4-1.8c-0.4-1.3-0.3-2.6,0.4-3.8
			c0.7-1.2,1.8-2.1,3.4-2.8c3.2-1.3,5.5-0.6,6.8,2.4c-2.4,1.1-3.7,1.7-6.1,2.6c0.8,2.1,2,2.9,3.6,2.2c1.5-0.6,2-1.6,1.5-2.7
			C198.5,235.6,198.5,235.4,198.4,235.2z M193.2,235.4c1-0.4,1.5-0.6,2.5-1c-0.8-1.9-1.5-2.7-2.3-2.3c-0.7,0.3-0.9,1.2-0.4,2.6
			C193.1,234.9,193.1,235.1,193.2,235.4z"/>
		<path d="M218.3,222.2c0.8-0.4,1.2-0.6,2.1-1c0.2,0.2,0.4,0.4,0.5,0.6c0.7,0.9,0.7,2.1,0,3.4c-0.7,1.3-2,2.6-3.8,3.8
			c-4.6,3-8,2.5-9.8-1c-0.9-1.6-0.9-3.3-0.3-5c0.7-1.7,2-3.2,3.9-4.4c3-2,5.2-2.1,6.7-0.1c-0.6,0.7-0.8,1.1-1.4,1.8
			c-0.2-0.3-0.3-0.5-0.4-0.7c-1-1.4-2.3-1.6-4-0.5c-1.8,1.2-1.7,3.3,0.2,6.4c1.6,2.7,3.5,3.4,5.7,2c0.9-0.6,1.5-1.3,1.8-2.1
			c0.3-0.8,0.2-1.6-0.3-2.3C218.9,222.9,218.7,222.6,218.3,222.2z"/>
		<path d="M220.9,211.3c3,3.7,4.5,5.5,7.5,9.2c-1.6,1.3-2.4,1.9-4.1,3.1c-2.8-3.8-4.2-5.6-7-9.4
			C218.4,213.5,219.6,212.5,220.9,211.3z"/>
		<path d="M234.4,203.4c2.6,2.4,3.9,3.6,6.6,6.1c-1.5,1.5-2.3,2.3-3.9,3.7c-0.4-0.4-0.6-0.6-1-1c-0.2,1.5-1,3-2.4,4.2
			c-1.9,1.7-3.4,1.9-4.4,0.8c-1.7-2-2.6-3-4.3-5c1.2-1.1,2.4-2.2,3.5-3.3c1.8,2,2.8,3,4.6,4.9c0.4,0.4,0.8,0.4,1.2,0
			c1.2-1,1-2.3-0.4-3.7c-1.2-1.2-1.8-1.9-3.1-3.1C232.2,205.9,233.3,204.7,234.4,203.4z"/>
		<path d="M243.1,207.4c-3.5-3.1-5.3-4.7-8.9-7.8c0.6-0.6,1.7-1.8,3.3-3.7c1.3,1.1,2,1.6,3.3,2.6c0-1.2,0.5-2.2,1.2-3.1
			c2.2-2.5,4.5-3.1,6.9-1.4c2.7,1.8,2.6,4.5-0.3,7.7c-1.4,1.5-3,2.5-4.8,2.8c0.1,0.8,0.1,1.1,0.2,1.9
			C243.7,206.8,243.5,207,243.1,207.4z M242,197.4c-0.8,0.9-0.4,1.9,1.2,3.2c1.9,1.5,3.2,1.8,4,0.9c0.7-0.8,0.5-1.5-0.4-2.3
			c-0.7-0.5-1-0.8-1.7-1.3c-0.4-0.3-0.6-0.4-1-0.7C243.2,196.7,242.5,196.8,242,197.4z"/>
	</g>
</g>
<g>
	<path fill="#0072BC" d="M154.8,72.8c-8.2,0-14.9,18.6-14.9,41.5c0,22.9,6.7,41.5,14.9,41.5c8.2,0,14.9-18.6,14.9-41.5
		C169.7,91.4,163,72.8,154.8,72.8z M155,154.2c-6.2,0-11.2-16-11.2-35.7c0-19.7,5-35.7,11.2-35.7c6.2,0,11.2,16,11.2,35.7
		C166.2,138.2,161.2,154.2,155,154.2z"/>
</g>
<g>
	<path fill="#0072BC" d="M187.3,90.2c-4.7-7.1-23.1-2.2-41.1,10.9c-18,13.1-28.8,29.4-24.1,36.5c4.7,7.1,23.1,2.2,41.1-10.9
		C181.2,113.6,192,97.3,187.3,90.2z M163.8,124.3c-15.6,11.3-31.3,15.8-35.2,9.9c-3.8-5.8,5.7-19.7,21.2-31
		c15.6-11.3,31.3-15.8,35.2-9.9C188.9,99.2,179.4,113,163.8,124.3z"/>
</g>
<g>
	<path fill="#0072BC" d="M163.3,101c-17.9-13.2-36.2-18.3-41-11.3c-3.8,5.6,2.1,17,13.6,28.1c-9.1-9.2-13.6-18.4-10.5-22.9
		c4.1-6,19.9-1.6,35.3,9.9c15.5,11.5,24.7,25.6,20.6,31.6c-3,4.5-12.7,3.1-23.8-2.6c13.7,7.5,25.8,9.4,29.5,3.9
		C191.8,130.7,181.2,114.2,163.3,101z M136,117.8c2.9,3,6.3,5.9,10.1,8.7c3.9,2.9,7.8,5.3,11.5,7.2c-3.8-2.1-7.6-4.5-11.5-7.4
		C142.4,123.6,139,120.8,136,117.8z"/>
</g>
<path fill="#FFFFFF" stroke="#0072BC" d="M132.1,125.7c0,3.4-2.5,6.1-5.6,6.1c-3.1,0-5.6-2.7-5.6-6.1c0-3.4,2.5-6.1,5.6-6.1
	C129.6,119.5,132.1,122.3,132.1,125.7z"/>
<path fill="#0DB14B" d="M161.5,115.3c0,3.7-2.8,6.6-6.3,6.6c-3.5,0-6.3-3-6.3-6.6c0-3.7,2.8-6.6,6.3-6.6
	C158.7,108.6,161.5,111.6,161.5,115.3z"/>
<g>
	<path fill="#7BD3F7" d="M154.4,118.3c0.6,0,1.4,0.7,3.2,0.5c1.3-0.2,1.9,0.1,2.2,0.3c0.8-1,1.3-2.3,1.3-3.7c0-2.7-1.7-5-4.1-5.8
		l0.2,1c0.7,1.6-0.9,1.6-1.6,3.1c-0.7,1.5-2.2,2.1-2.5,0.1c-0.2-1.6-1.8-2.2-2.4-2.3c-0.9,1.1-1.4,2.4-1.4,4c0,2.6,1.6,4.8,3.8,5.7
		C153.3,120.4,153.9,118.3,154.4,118.3z"/>
</g>
<path fill="#0DB14B" d="M157.2,114.5c0,0-0.4,0.5-0.3,1.1c0.1,0.6-3.1-0.1-0.2,1.2c2.9,1.3,1.5-0.4,1.5-0.7
	C158.2,115.8,160.4,113,157.2,114.5z"/>
</svg>
