<?xml version="1.0" encoding="utf-8"?>
<!-- Generator: Adobe Illustrator 18.0.0, SVG Export Plug-In . SVG Version: 6.00 Build 0)  -->
<!DOCTYPE svg PUBLIC "-//W3C//DTD SVG 1.1//EN" "http://www.w3.org/Graphics/SVG/1.1/DTD/svg11.dtd">
<svg version="1.1" id="Layer_1" xmlns="http://www.w3.org/2000/svg" xmlns:xlink="http://www.w3.org/1999/xlink" x="0px" y="0px"
	 viewBox="0 0 293.3 220.3" enable-background="new 0 0 293.3 220.3" xml:space="preserve">
<g id="Layer_1_1_">
	<g>
		<path fill="#F6F623" stroke="#1A9535" stroke-width="5" d="M257.4,187.5l-25.7-22.3l17.7-27c0,0,13.1-13,11.3-30.5l29.8,21.9
			c0,0-9.1,39.3-28.7,56.4C259.9,187.4,258.5,187.8,257.4,187.5c-7.3-2,3.6-38.2,3.6-38.2"/>
	</g>
	<g>
		<path fill="#F6F623" stroke="#1A9535" stroke-width="5" d="M36.4,184.9l25.5-22.5L44,135.6c0,0-13.2-12.9-11.6-30.4L2.8,127.3
			c0,0,9.5,39.2,29.3,56.2C34,184.8,35.4,185.2,36.4,184.9c7.3-2.1-4-38.1-4-38.1"/>
	</g>
	<path fill="#F6F623" stroke="#1A9535" stroke-width="5" d="M238.7,128.6c-10.1,35.6-46.6,62-90.2,62c-44.6,0-81.9-27.6-91-64.5
		l-25,20.7c17.4,41.5,62.7,71.1,115.9,71.1c52.1,0,96.7-28.4,114.8-68.5L238.7,128.6z"/>
	<g>
		<g>
			<path fill="none" stroke="#1A9535" stroke-width="5" d="M147.3,2.5c-46.7,0.7-84,39.7-83.3,87.1c0.6,37.1,24.3,68.4,57.1,79.8
				c5.2-4.3,11.2-16.6,4.9-19.5c-32-10.4-25.5-30.7-25.5-30.7c12.4,20.9,29.5,18.6,29.5,18.6L118.7,125
				c12.1,1.8,19.6,12.1,19.6,12.1c2.7,8.5,1.4,28.8,0.8,36.3c3.6,0.4,7.2,0.6,10.9,0.6c2.4,0,4.8-0.2,7.1-0.4
				c-0.3-7.5-1-28.6,2.1-37.1c0,0,7.9-10.1,20-11.6l-11.7,12.6c0,0,17,3,30.1-17.8c0,0,5.8,20.9-26.6,30.2
				c-6.3,2.6-0.9,15.2,4.1,19.9c34.3-11.4,58.8-44.4,58.2-82.9C232.5,39.6,194.1,1.8,147.3,2.5z"/>
		</g>
	</g>
	<g>
		<g>
			<path fill="#EF1448" d="M149.7,20.8c-10.6,0-19.1,22-19.1,49.1s8.6,49.1,19.1,49.1s19.1-22,19.1-49.1S160.2,20.8,149.7,20.8z
				 M149.9,117.1c-8,0-14.4-18.9-14.4-42.3c0-23.3,6.4-42.3,14.4-42.3c7.9,0,14.4,18.9,14.4,42.3
				C164.3,98.2,157.9,117.1,149.9,117.1z"/>
		</g>
	</g>
	<g>
		<g>
			<path fill="#EF1448" d="M160,56.5c-22.9-15.7-46.5-21.7-52.6-13.4c-4.8,6.6,2.7,20.1,17.5,33.3c-11.6-10.8-17.4-21.7-13.5-27.1
				c5.2-7.1,25.5-1.9,45.4,11.7c19.8,13.6,31.7,30.3,26.5,37.4c-3.9,5.3-16.3,3.7-30.6-3.1c17.5,8.9,33.1,11.1,37.8,4.6
				C196.5,91.6,182.9,72.2,160,56.5z M124.9,76.4c3.8,3.5,8.1,7,13,10.3c5,3.4,10,6.3,14.8,8.6c-4.8-2.4-9.8-5.4-14.7-8.7
				C133.1,83.3,128.7,79.9,124.9,76.4z"/>
		</g>
	</g>
	<circle fill="#33A02C" cx="150.2" cy="74.6" r="8.1"/>
	<g>
		<g>
			<path fill="#8BD3E5" d="M149.2,78.2c0.8-0.1,1.8,0.9,4.1,0.6c1.6-0.2,2.4,0.1,2.8,0.3c1-1.2,1.6-2.8,1.6-4.4
				c0-3.2-2.2-5.9-5.2-6.8l0.3,1.1c0.8,1.9-1.2,1.9-2,3.7c-0.9,1.8-2.8,2.5-3.1,0.1c-0.3-1.9-2.3-2.6-3.1-2.8
				c-1.1,1.3-1.8,2.9-1.8,4.7c0,3.1,2,5.7,4.9,6.7C147.7,80.6,148.5,78.2,149.2,78.2z"/>
		</g>
	</g>
	<path fill="#33A02C" d="M152.7,73.7c0,0-0.5,0.6-0.4,1.3c0.1,0.7-4-0.1-0.3,1.4c3.7,1.6,1.9-0.4,1.9-0.8
		C154,75.2,156.8,71.9,152.7,73.7z"/>
	<g>
		<g>
			<path fill="#EF1448" d="M191.4,41.8c-6.5-8.1-29.7-1.2-52,15.3c-22.2,16.5-35,36.4-28.6,44.5c5.1,6.3,20.5,3.5,37.6-6
				c-14,7.4-26.3,9.4-30.4,4.2c-5.5-6.9,5.6-24.1,24.8-38.3c19.2-14.3,39.3-20.2,44.8-13.3c4.2,5.2-1.2,16.3-12.3,27.6
				C189.5,62,196.5,48.2,191.4,41.8z M148.5,95.6c4.7-2.5,9.6-5.5,14.4-9.1c4.7-3.5,8.9-7.1,12.5-10.8c-3.7,3.6-7.9,7.2-12.6,10.6
				C158,89.8,153.2,92.9,148.5,95.6z"/>
		</g>
	</g>
	<path fill="#FCFCFC" stroke="#EF1448" d="M124.4,85.7c0,4-3.2,7.2-7.2,7.2s-7.2-3.2-7.2-7.2s3.2-7.2,7.2-7.2
		C121.2,78.5,124.4,81.7,124.4,85.7z"/>
</g>
<g>
	<g>
		<path fill="#333333" stroke="#333333" stroke-width="0.7" stroke-miterlimit="10" d="M51.4,154.8c-1.9,1.2-3.6,0.8-4.9-1.4
			c-0.4-0.7-0.7-1.5-0.9-2.3c0.6-0.2,1.3-0.4,1.9-0.7c0.1,0.8,0.3,1.4,0.6,2c0.4,0.6,0.7,1,1,1.2c0.3,0.2,0.7,0.1,1-0.1
			c0.4-0.2,0.6-0.5,0.7-0.9c0.1-0.3,0.1-0.9,0.1-1.8c0-0.8,0.1-1.4,0.4-1.9c0.3-0.6,0.9-1.2,1.6-1.6c0.9-0.5,1.7-0.6,2.5-0.4
			c0.8,0.2,1.4,0.7,1.9,1.5c0.4,0.7,0.7,1.3,0.8,1.8c-0.6,0.3-1.2,0.5-1.8,0.8c0-0.6-0.2-1.2-0.6-1.7c-0.5-0.8-1.1-1.1-1.7-0.7
			c-0.3,0.2-0.6,0.4-0.7,0.8c-0.1,0.3-0.1,0.8-0.1,1.6c0,0.8-0.1,1.5-0.3,2.1C52.7,153.7,52.2,154.3,51.4,154.8z"/>
		<path fill="#333333" stroke="#333333" stroke-width="0.7" stroke-miterlimit="10" d="M54.7,161.6c-0.6,0.4-1.1,0.7-1.7,1.1
			c-0.5-0.4-1-0.8-1.3-1.3c-0.9-1.2-1.1-2.5-0.6-3.7c0.5-1.3,1.4-2.3,2.8-3.1c1.4-0.9,2.8-1.3,4.3-1.3c1.5,0,2.5,0.5,3.3,1.6
			c0.3,0.4,0.5,0.8,0.6,1.2c-0.6,0.3-1.2,0.7-1.8,1c-0.1-0.5-0.3-0.9-0.5-1.3c-0.5-0.7-1.1-1-2-0.9c-0.9,0.1-1.7,0.4-2.6,1
			c-0.9,0.6-1.6,1.3-2,2.2c-0.4,0.9-0.3,1.7,0.2,2.4C53.7,160.8,54.1,161.2,54.7,161.6z"/>
		<path fill="#333333" stroke="#333333" stroke-width="0.7" stroke-miterlimit="10" d="M54.9,165.3c-0.4-0.5-0.7-1-1.1-1.5
			c1.5-1,3.1-2.2,4.9-3.4c1.7-1.2,3.2-2.3,4.4-3.2c0.3,0.4,0.7,0.9,1,1.3c-1.2,0.8-2.7,1.9-4.4,3.2
			C57.8,162.9,56.3,164.1,54.9,165.3z"/>
		<path fill="#333333" stroke="#333333" stroke-width="0.7" stroke-miterlimit="10" d="M61,169.7c-0.5,0.4-1,0.8-1.5,1.2
			c-1.2-1.4-2.4-2.8-3.5-4.2c1.4-1,3-2.2,4.8-3.6c1.7-1.3,3.1-2.4,4.3-3.4c1,1.2,2,2.4,3,3.6c-0.5,0.4-1,0.8-1.5,1.2
			c-0.7-0.9-1.3-1.8-1.9-2.5c-0.6,0.5-1.3,1.1-2.2,1.8c0.5,0.7,1.1,1.3,1.8,2c-0.5,0.4-0.9,0.8-1.4,1.2c-0.6-0.8-1.1-1.5-1.7-2.1
			c-0.9,0.7-1.8,1.4-2.6,2.1C59.3,167.9,60.1,168.8,61,169.7z"/>
		<path fill="#333333" stroke="#333333" stroke-width="0.7" stroke-miterlimit="10" d="M65.2,176.9c-0.4-0.4-0.7-0.7-1.1-1.1
			c0.2-0.2,0.7-1.5,1.6-3.8c1-2.5,1.8-4,2.3-4.7c0,0,0,0-0.1-0.1c-0.9,0.9-1.7,1.7-2.5,2.4c-1.1,1-2.4,2.1-3.8,3.6
			c-0.4-0.4-0.7-0.8-1-1.2c1.4-1.1,2.9-2.4,4.5-3.8c1.6-1.4,2.9-2.6,4-3.6c0.4,0.4,0.8,0.8,1.1,1.3c-0.2,0.2-0.8,1.4-1.8,3.5
			c-1,2.3-1.6,3.8-2.1,4.5c0,0,0,0,0.1,0.1c0.9-1,1.7-1.8,2.4-2.5c1.1-1.1,2.3-2.2,3.5-3.4c0.3,0.3,0.7,0.7,1,1
			c-1.1,1-2.4,2.2-3.9,3.7C67.8,174.2,66.4,175.6,65.2,176.9z"/>
		<path fill="#333333" stroke="#333333" stroke-width="0.7" stroke-miterlimit="10" d="M72.1,180.5c-0.5,0.5-0.9,1-1.4,1.4
			c-0.6-0.2-1.1-0.5-1.5-0.9c-1.1-0.9-1.5-2.1-1.2-3.4c0.2-1.3,0.9-2.5,2-3.6c1.2-1.2,2.4-1.9,3.8-2.3c1.4-0.4,2.5-0.1,3.4,0.7
			c0.3,0.3,0.6,0.6,0.8,1c-0.5,0.5-1,0.9-1.5,1.4c-0.2-0.5-0.4-0.8-0.7-1.1c-0.6-0.5-1.2-0.6-2-0.4c-0.8,0.3-1.6,0.8-2.3,1.6
			c-0.8,0.8-1.2,1.6-1.4,2.5c-0.2,0.9,0,1.7,0.7,2.2C71,180,71.5,180.3,72.1,180.5z"/>
		<path fill="#333333" stroke="#333333" stroke-width="0.7" stroke-miterlimit="10" d="M76.9,184.7c-0.4,0.5-0.8,1-1.2,1.5
			c-1.4-1.1-2.7-2.2-4-3.3c1.2-1.3,2.5-2.8,3.9-4.4c1.4-1.6,2.6-3,3.5-4.1c1.1,1,2.3,1.9,3.5,2.8c-0.4,0.5-0.8,1-1.2,1.4
			c-0.8-0.8-1.6-1.4-2.3-2c-0.5,0.6-1.1,1.4-1.8,2.2c0.6,0.5,1.3,1,2.1,1.5c-0.4,0.5-0.8,0.9-1.1,1.4c-0.7-0.6-1.3-1.2-2-1.7
			c-0.8,0.9-1.5,1.7-2.1,2.6C74.9,183.3,75.9,184,76.9,184.7z"/>
		<path fill="#333333" stroke="#333333" stroke-width="0.7" stroke-miterlimit="10" d="M84.8,190.1c-0.4,0.5-0.8,1.1-1.2,1.6
			c-0.6-0.1-1.1-0.4-1.6-0.7c-1.1-0.8-1.7-1.8-1.6-3.1c0.1-1.3,0.6-2.6,1.5-3.8c1-1.3,2.1-2.2,3.4-2.8c1.3-0.6,2.4-0.5,3.4,0.2
			c0.4,0.2,0.7,0.5,0.9,0.9c-0.4,0.5-0.9,1-1.3,1.6c-0.2-0.4-0.5-0.7-0.9-1c-0.6-0.4-1.3-0.4-2,0c-0.7,0.4-1.4,1-2,1.9
			c-0.6,0.9-1,1.8-1.1,2.7c-0.1,0.9,0.2,1.6,0.9,2.1C83.6,189.8,84.1,190,84.8,190.1z"/>
		<path fill="#333333" stroke="#333333" stroke-width="0.7" stroke-miterlimit="10" d="M89.9,193.4c-0.3,0.5-0.7,1.1-1,1.6
			c-1.4-0.8-2.9-1.7-4.3-2.6c0.9-1.3,2-2.9,3.3-4.9c1.2-1.8,2.1-3.3,2.9-4.5c0.4,0.3,0.9,0.5,1.3,0.8c-0.7,1.1-1.7,2.6-2.9,4.5
			c-0.9,1.5-1.7,2.6-2.3,3.5C87.8,192.3,88.8,192.9,89.9,193.4z"/>
		<path fill="#333333" stroke="#333333" stroke-width="0.7" stroke-miterlimit="10" d="M100.5,188.5c-0.9,1.7-1.8,3.4-2.7,5.2
			c-1.7,3.4-3.6,4.7-5.5,3.6c-0.9-0.5-1.5-1.3-1.5-2.3c-0.1-1,0.5-2.4,1.6-4.3c1-1.7,1.9-3.3,2.8-5c0.4,0.3,0.9,0.5,1.3,0.7
			c-1,1.7-1.9,3.3-2.8,4.9c-0.8,1.4-1.2,2.4-1.2,3c0,0.6,0.2,1.1,0.7,1.4c0.5,0.3,1.1,0.2,1.6-0.2c0.5-0.4,1.1-1.3,1.9-2.7
			c0.8-1.6,1.7-3.2,2.6-5C99.7,188,100.1,188.2,100.5,188.5z"/>
		<path fill="#333333" stroke="#333333" stroke-width="0.7" stroke-miterlimit="10" d="M103.6,198.5c-0.9,2.1-2.5,2.7-4.9,1.6
			c-0.4-0.2-1-0.5-1.9-0.9c0.8-1.5,1.7-3.3,2.7-5.3c0.9-1.9,1.7-3.5,2.3-4.8c0.3,0.1,0.5,0.2,0.8,0.4c0.1,0.1,0.4,0.2,0.8,0.3
			c0.4,0.1,0.6,0.3,0.8,0.4c1.4,0.6,1.8,1.7,1.2,3.2c-0.5,1.2-1.2,1.8-2.2,1.8c0,0,0,0.1-0.1,0.1c0.4,0.3,0.6,0.7,0.8,1.2
			C104.1,197,104,197.7,103.6,198.5z M103.8,193.4c0.4-0.9,0.3-1.6-0.5-1.9c-0.3-0.2-0.7-0.3-1-0.3c-0.2,0.5-0.6,1.5-1.2,2.7
			c0.1,0.1,0.3,0.1,0.4,0.2C102.6,194.6,103.3,194.4,103.8,193.4z M102.2,198c0.5-1,0.1-1.8-1.1-2.4c-0.2-0.1-0.4-0.2-0.6-0.2
			c-0.5,1.1-1,2.1-1.4,3c0.1,0.1,0.3,0.2,0.5,0.3c0.7,0.3,1.2,0.4,1.6,0.3C101.6,198.9,101.9,198.5,102.2,198z"/>
		<path fill="#333333" stroke="#333333" stroke-width="0.7" stroke-miterlimit="10" d="M114.4,199.8c-0.5,1.7-1.3,3-2.4,3.9
			c-1.1,0.9-2.1,1.1-3.1,0.8c-1-0.3-1.6-1.1-1.9-2.4c-0.3-1.2-0.1-2.6,0.5-4.2c0.6-1.6,1.5-2.9,2.6-3.7c1.1-0.9,2-1.1,2.9-0.8
			c0.9,0.3,1.4,1,1.7,2.3C115,196.8,114.9,198.2,114.4,199.8z M112.9,199.6c0.4-1.1,0.5-2.1,0.4-3c-0.1-0.8-0.4-1.3-1-1.5
			c-0.5-0.2-1,0-1.7,0.6c-0.6,0.6-1.1,1.4-1.5,2.5c-0.4,1.1-0.6,2.1-0.5,2.9c0.1,0.8,0.5,1.4,1,1.6c0.5,0.2,1.1,0,1.7-0.6
			C112,201.5,112.5,200.7,112.9,199.6z"/>
		<path fill="#333333" stroke="#333333" stroke-width="0.7" stroke-miterlimit="10" d="M121.4,196.2c-0.2,0.6-0.4,1.2-0.5,1.8
			c-1.1-0.4-2-0.7-2.9-0.9c-0.2,1-0.5,2-0.9,3.2c0.7,0.2,1.5,0.4,2.4,0.6c-0.2,0.6-0.3,1.1-0.5,1.7c-0.9-0.3-1.7-0.5-2.4-0.7
			c-0.5,1.6-0.9,3-1.2,4.4c-0.5-0.1-1-0.3-1.6-0.5c0.6-1.6,1.2-3.5,1.8-5.6c0.6-2,1.1-3.7,1.5-5.1
			C118.6,195.4,120,195.8,121.4,196.2z"/>
		<path fill="#333333" stroke="#333333" stroke-width="0.7" stroke-miterlimit="10" d="M129.4,203.2c-0.3,1.6-0.9,3-1.8,4
			c-0.9,1.1-2,1.5-3.3,1.2c-0.6-0.1-1.3-0.3-2.3-0.6c0.4-1.7,0.9-3.6,1.4-5.7c0.5-2,0.8-3.8,1.1-5.2c0.3,0.1,0.6,0.1,0.9,0.2
			c0.1,0,0.4,0.1,0.7,0.1c0.3,0,0.5,0.1,0.6,0.1c1.2,0.3,2,0.9,2.4,2C129.6,200.5,129.6,201.8,129.4,203.2z M127.8,203.3
			c0.2-1.1,0.2-2-0.1-2.9c-0.3-0.8-0.8-1.3-1.6-1.5c-0.2,0-0.4,0-0.6-0.1c-0.2,1.1-0.4,2.3-0.7,3.5c-0.3,1.3-0.6,2.7-0.8,4
			c0.2,0.1,0.5,0.2,0.7,0.3c0.8,0.2,1.5-0.1,2-0.8C127.3,205.3,127.6,204.4,127.8,203.3z"/>
		<path fill="#333333" stroke="#333333" stroke-width="0.7" stroke-miterlimit="10" d="M136.2,210.2c-0.6-0.1-1.2-0.1-1.9-0.2
			c0-0.4,0-1.5-0.1-3.3c-0.9-0.1-1.7-0.2-2.6-0.3c-0.6,1.7-1,2.7-1,3.1c-0.6-0.1-1.2-0.2-1.7-0.3c0-0.2,0.8-2,2.2-5.2
			c1.4-3.3,2.1-5.1,2.1-5.5c0.7,0.1,1.3,0.2,2,0.3c0,0.3,0.1,2.2,0.5,5.7C136,208,136.2,209.8,136.2,210.2z M134.1,205
			c-0.3-3-0.3-4.6-0.3-4.9c0,0-0.1,0-0.1,0c0,0.2-0.6,1.8-1.6,4.6C132.8,204.9,133.5,204.9,134.1,205z"/>
		<path fill="#333333" stroke="#333333" stroke-width="0.7" stroke-miterlimit="10" d="M143.3,210.7c-0.5,0-1,0-1.4-0.1
			c0-0.2-0.5-1.5-1.3-3.8c-0.9-2.4-1.4-4.1-1.4-5c0,0-0.1,0-0.1,0c0,1.3-0.1,2.4-0.2,3.4c-0.1,1.4-0.2,3.1-0.4,5.2
			c-0.5,0-1-0.1-1.4-0.1c0.2-1.8,0.4-3.7,0.6-5.8c0.2-2.1,0.3-3.9,0.4-5.3c0.5,0,1,0.1,1.6,0.1c0,0.3,0.3,1.5,1,3.7
			c0.8,2.3,1.3,3.9,1.4,4.7c0,0,0.1,0,0.1,0c0-1.3,0-2.4,0.1-3.4c0.1-1.6,0.1-3.1,0.2-4.8c0.4,0,0.9,0,1.3,0.1
			c-0.1,1.4-0.2,3.2-0.3,5.3C143.4,207,143.3,208.9,143.3,210.7z"/>
		<path fill="#333333" stroke="#333333" stroke-width="0.7" stroke-miterlimit="10" d="M146.6,210.8c-0.5,0-1.1,0-1.6,0
			c0.1-1.8,0.2-3.7,0.2-5.9c0.1-2.1,0.1-3.9,0.1-5.3c0.5,0,1,0,1.5,0c-0.1,1.4-0.1,3.2-0.2,5.3C146.6,207.1,146.6,209,146.6,210.8z"
			/>
		<path fill="#333333" stroke="#333333" stroke-width="0.7" stroke-miterlimit="10" d="M154.9,210.6c-0.6,0-1.2,0.1-1.9,0.1
			c0-0.4-0.2-1.4-0.6-3.2c-0.9,0-1.7,0-2.6,0.1c-0.3,1.7-0.5,2.8-0.5,3.2c-0.6,0-1.2,0-1.8,0c0-0.2,0.5-2.1,1.3-5.5
			c0.8-3.5,1.2-5.4,1.2-5.7c0.7,0,1.3,0,2,0c0,0.3,0.4,2.2,1.4,5.6C154.4,208.5,154.9,210.3,154.9,210.6z M152.1,205.9
			c-0.7-2.9-1.1-4.5-1.1-4.8c0,0-0.1,0-0.1,0c0,0.2-0.3,1.8-0.9,4.8C150.7,205.9,151.4,205.9,152.1,205.9z"/>
		<path fill="#333333" stroke="#333333" stroke-width="0.7" stroke-miterlimit="10" d="M163.1,198.6c0.2,1.9,0.5,3.8,0.8,5.7
			c0.5,3.8-0.2,5.8-2.4,6c-1,0.1-1.9-0.2-2.5-1c-0.6-0.8-1-2.3-1.2-4.5c-0.2-1.9-0.3-3.8-0.5-5.7c0.5,0,1-0.1,1.5-0.1
			c0.1,1.9,0.3,3.8,0.5,5.6c0.2,1.6,0.4,2.6,0.7,3.2c0.3,0.6,0.8,0.8,1.3,0.7c0.6-0.1,1-0.4,1.2-1c0.2-0.6,0.2-1.7,0-3.3
			c-0.2-1.7-0.5-3.6-0.8-5.5C162.1,198.7,162.6,198.6,163.1,198.6z"/>
		<path fill="#333333" stroke="#333333" stroke-width="0.7" stroke-miterlimit="10" d="M172.3,208.4c-0.5,0.1-0.9,0.2-1.4,0.3
			c0-0.2-0.8-1.3-2.2-3.4c-1.5-2.1-2.3-3.7-2.6-4.5c0,0-0.1,0-0.1,0c0.3,1.2,0.5,2.3,0.7,3.3c0.2,1.4,0.5,3.1,0.9,5.1
			c-0.5,0.1-0.9,0.1-1.4,0.2c-0.2-1.8-0.5-3.7-0.8-5.8c-0.3-2.1-0.6-3.8-0.9-5.3c0.5-0.1,1-0.2,1.5-0.2c0.1,0.3,0.7,1.4,1.9,3.4
			c1.3,2.1,2.2,3.4,2.5,4.2c0,0,0.1,0,0.1,0c-0.3-1.2-0.6-2.4-0.8-3.4c-0.3-1.5-0.6-3.1-1-4.7c0.4-0.1,0.9-0.2,1.3-0.3
			c0.2,1.4,0.6,3.2,1,5.3C171.5,204.8,171.9,206.7,172.3,208.4z"/>
		<path fill="#333333" stroke="#333333" stroke-width="0.7" stroke-miterlimit="10" d="M175.6,207.7c-0.5,0.1-1.1,0.2-1.6,0.4
			c-0.3-1.7-0.7-3.7-1.2-5.7c-0.5-2-0.9-3.8-1.2-5.2c0.5-0.1,1-0.2,1.5-0.3c0.3,1.4,0.7,3.2,1.2,5.2
			C174.7,204.1,175.1,206,175.6,207.7z"/>
		<path fill="#333333" stroke="#333333" stroke-width="0.7" stroke-miterlimit="10" d="M179.7,195c0.1,0.5,0.3,2.4,0.4,5.7
			c0.1,3.4,0.2,5.3,0.3,5.7c-0.5,0.1-1,0.3-1.6,0.4c-0.1-0.4-1-2.1-2.6-5.1c-1.6-3-2.4-4.7-2.5-5.2c0.5-0.1,1.1-0.3,1.6-0.4
			c0.1,0.4,0.7,1.8,1.9,4.1c1.1,2.3,1.8,3.7,1.9,4c0,0,0.1,0,0.1,0c-0.1-0.3-0.2-1.7-0.4-4.2c-0.2-2.5-0.4-4-0.6-4.6
			C178.7,195.3,179.2,195.1,179.7,195z"/>
		<path fill="#333333" stroke="#333333" stroke-width="0.7" stroke-miterlimit="10" d="M188,202.1c0.2,0.6,0.4,1.2,0.6,1.8
			c-1.6,0.6-3.2,1.1-4.7,1.6c-0.5-1.7-1-3.5-1.7-5.6c-0.6-2-1.2-3.7-1.7-5.1c1.4-0.4,2.7-0.9,4.1-1.4c0.2,0.6,0.4,1.2,0.6,1.8
			c-1.1,0.3-2,0.5-2.8,0.8c0.3,0.7,0.6,1.6,0.9,2.7c0.7-0.2,1.5-0.5,2.3-0.9c0.2,0.6,0.4,1.1,0.6,1.7c-0.8,0.2-1.7,0.5-2.4,0.7
			c0.4,1.1,0.7,2.1,1.1,3.1C185.9,203,186.9,202.6,188,202.1z"/>
		<path fill="#333333" stroke="#333333" stroke-width="0.7" stroke-miterlimit="10" d="M195.6,201.1c-0.5,0.2-1.1,0.5-1.6,0.7
			c-1.2-1.7-2-2.7-2.4-3.1c-0.4-0.4-0.8-0.4-1.3-0.2c-0.2,0.1-0.4,0.2-0.6,0.2c0.5,1.4,1.1,2.8,1.7,4.2c-0.5,0.2-1,0.4-1.5,0.6
			c-0.6-1.6-1.2-3.5-2-5.5c-0.7-2-1.4-3.6-2-5c0.3-0.1,0.6-0.2,0.9-0.3c0.1,0,0.3-0.1,0.6-0.3c0.3-0.1,0.6-0.3,0.9-0.4
			c1.5-0.6,2.6-0.1,3.3,1.6c0.6,1.3,0.5,2.4-0.2,3.3c0,0,0,0.1,0.1,0.1c0.4,0,0.9,0.3,1.5,0.9C193.5,198.4,194.4,199.5,195.6,201.1z
			 M190.5,194.7c-0.4-1.1-1.1-1.4-2-1.1c-0.3,0.1-0.6,0.3-0.8,0.4c0.4,0.8,0.8,1.9,1.3,3.2c0.2-0.1,0.4-0.1,0.5-0.2
			C190.7,196.6,191,195.8,190.5,194.7z"/>
		<path fill="#333333" stroke="#333333" stroke-width="0.7" stroke-miterlimit="10" d="M199.7,195.9c1,2,0.5,3.5-1.5,4.4
			c-0.7,0.3-1.4,0.5-2.1,0.5c-0.2-0.6-0.3-1.2-0.5-1.9c0.7,0,1.3-0.1,1.8-0.3c0.6-0.3,0.9-0.5,1.1-0.8c0.2-0.3,0.2-0.6,0-1
			c-0.2-0.4-0.5-0.7-0.8-0.8c-0.3-0.1-0.9-0.3-1.6-0.4c-0.7-0.1-1.3-0.3-1.7-0.6c-0.6-0.4-1-1-1.4-1.7c-0.4-0.9-0.5-1.7-0.3-2.4
			c0.2-0.7,0.7-1.2,1.4-1.6c0.6-0.3,1.2-0.5,1.7-0.5c0.2,0.6,0.5,1.2,0.7,1.8c-0.6,0-1.1,0.1-1.6,0.3c-0.8,0.4-1,0.9-0.7,1.5
			c0.2,0.3,0.4,0.6,0.7,0.7c0.2,0.1,0.7,0.2,1.4,0.3c0.7,0.1,1.4,0.3,1.9,0.6C198.8,194.4,199.3,195,199.7,195.9z"/>
		<path fill="#333333" stroke="#333333" stroke-width="0.7" stroke-miterlimit="10" d="M203.8,197.3c-0.5,0.3-1,0.5-1.5,0.8
			c-0.8-1.6-1.7-3.4-2.6-5.3c-1-1.9-1.8-3.4-2.5-4.7c0.5-0.2,0.9-0.5,1.4-0.7c0.7,1.3,1.5,2.9,2.5,4.8
			C202,194,202.9,195.8,203.8,197.3z"/>
		<path fill="#333333" stroke="#333333" stroke-width="0.7" stroke-miterlimit="10" d="M204.1,184.2c0.3,0.5,0.6,1.1,1,1.6
			c-0.7,0.3-1.3,0.6-1.9,0.9c0.6,0.9,1.2,2,1.9,3.1c1.1,1.8,2.1,3.5,3.1,5c-0.5,0.3-1,0.6-1.5,0.8c-0.9-1.6-1.8-3.3-2.9-5.1
			c-0.7-1.1-1.3-2.2-1.8-3.1c-0.4,0.3-1,0.6-1.8,1.1c-0.3-0.6-0.6-1.1-0.9-1.7C200.9,186.1,202.5,185.1,204.1,184.2z"/>
		<path fill="#333333" stroke="#333333" stroke-width="0.7" stroke-miterlimit="10" d="M209.3,180.8c0.1,0.2,0.3,0.8,0.6,1.9
			c0.4,1.7,0.6,2.7,0.7,3.1c0.3,1.2,0.6,2.1,0.9,2.5c0.7,1.1,1.4,2.1,2.2,3.1c-0.5,0.3-1,0.6-1.4,0.9c-0.7-1.1-1.3-2.2-2-3.2
			c-0.3-0.5-1-1.1-2-1.9c-0.5-0.4-1.3-1-2.5-1.9c-0.9-0.7-1.4-1.1-1.5-1.2c0.5-0.3,1-0.6,1.4-0.9c0.1,0.2,0.8,0.8,2,1.8
			c1.2,1,2,1.7,2.2,2.1c0,0,0.1,0,0.1,0c-0.2-0.3-0.6-1.3-1-2.7c-0.4-1.5-0.8-2.4-1-2.7C208.4,181.4,208.9,181.1,209.3,180.8z"/>
		<path fill="#333333" stroke="#333333" stroke-width="0.7" stroke-miterlimit="10" d="M221.9,182.9c0.4,0.5,0.8,1.1,1.2,1.6
			c-0.3,0.5-0.7,1-1.2,1.3c-1.1,0.9-2.3,1.1-3.5,0.6c-1.2-0.4-2.3-1.3-3.3-2.6c-1-1.3-1.5-2.6-1.7-4c-0.2-1.4,0.2-2.4,1.2-3.2
			c0.4-0.3,0.7-0.5,1.1-0.6c0.4,0.6,0.8,1.1,1.1,1.7c-0.5,0.1-0.9,0.3-1.2,0.5c-0.6,0.5-0.8,1.1-0.6,1.9c0.2,0.8,0.6,1.6,1.2,2.5
			c0.7,0.9,1.4,1.5,2.3,1.8c0.9,0.3,1.6,0.3,2.3-0.3C221.3,183.9,221.7,183.4,221.9,182.9z"/>
		<path fill="#333333" stroke="#333333" stroke-width="0.7" stroke-miterlimit="10" d="M225.7,174.5c1.2,1.3,2,2.6,2.2,4
			c0.2,1.4-0.1,2.5-0.9,3.2c-0.8,0.7-1.9,0.9-3.1,0.6c-1.3-0.3-2.4-1.2-3.5-2.4c-1.1-1.4-1.8-2.7-2.1-4.1c-0.2-1.3,0-2.3,0.8-3
			c0.7-0.6,1.7-0.8,2.9-0.5C223.3,172.6,224.5,173.3,225.7,174.5z M224.7,175.8c-0.8-0.9-1.7-1.5-2.5-1.7c-0.8-0.3-1.4-0.2-1.9,0.2
			c-0.4,0.4-0.5,1-0.3,1.8c0.2,0.8,0.7,1.7,1.5,2.5c0.8,0.9,1.6,1.5,2.4,1.8c0.8,0.3,1.5,0.2,2-0.2c0.4-0.4,0.6-1,0.3-1.8
			C226,177.5,225.5,176.6,224.7,175.8z"/>
		<path fill="#333333" stroke="#333333" stroke-width="0.7" stroke-miterlimit="10" d="M233.1,172.7c0.5,0.4,0.9,0.9,1.4,1.3
			c-1.2,1.3-2.4,2.5-3.7,3.7c-1.1-1.2-2.4-2.6-4.1-4.3c-1.5-1.5-2.8-2.8-3.9-3.8c0.4-0.4,0.8-0.7,1.1-1.1c0.9,1,2.2,2.2,3.8,3.8
			c1.3,1.2,2.2,2.2,2.9,3C231.5,174.6,232.3,173.7,233.1,172.7z"/>
		<path fill="#333333" stroke="#333333" stroke-width="0.7" stroke-miterlimit="10" d="M237.2,168.1c0.5,0.4,1,0.8,1.4,1.2
			c-1.1,1.4-2.3,2.7-3.5,4c-1.1-1.1-2.6-2.4-4.4-4c-1.6-1.5-3-2.7-4.1-3.6c0.4-0.4,0.7-0.8,1.1-1.2c1,0.9,2.3,2.1,4,3.6
			c1.3,1.2,2.3,2.1,3.1,2.8C235.7,170.1,236.4,169.1,237.2,168.1z"/>
		<path fill="#333333" stroke="#333333" stroke-width="0.7" stroke-miterlimit="10" d="M241.2,163.1c0.5,0.4,1,0.8,1.5,1.2
			c-1.1,1.5-2.2,2.9-3.4,4.3c-1.3-1.1-2.9-2.4-4.6-3.8c-1.7-1.3-3.1-2.4-4.3-3.3c1-1.2,2-2.4,2.9-3.7c0.5,0.4,1,0.8,1.5,1.2
			c-0.8,0.9-1.5,1.7-2.1,2.5c0.7,0.5,1.4,1,2.3,1.7c0.5-0.7,1.1-1.4,1.6-2.2c0.5,0.4,1,0.7,1.5,1.1c-0.6,0.7-1.2,1.4-1.8,2.1
			c0.9,0.7,1.8,1.4,2.7,2C239.8,165.2,240.5,164.2,241.2,163.1z"/>
		<path fill="#333333" stroke="#333333" stroke-width="0.7" stroke-miterlimit="10" d="M247.2,157.3c-0.3,1.1-0.6,1.9-1,2.5
			c-0.9,1.3-2,1.9-3.3,1.9c-1.4,0-2.7-0.5-3.9-1.4c-1.3-1-2.3-2.1-2.8-3.4c-0.6-1.3-0.5-2.5,0.3-3.6c0.4-0.5,0.7-1,1.2-1.3
			c0.6,0.4,1.1,0.8,1.6,1.3c-0.6,0.4-1,0.8-1.3,1.2c-0.5,0.7-0.5,1.4-0.1,2.2c0.4,0.8,1,1.5,1.9,2.1c0.9,0.6,1.9,1,2.8,1.1
			c1,0.1,1.7-0.3,2.2-1c0.1-0.2,0.3-0.5,0.4-0.8c-0.6-0.3-1.1-0.6-1.7-1c-0.5-0.3-1.2-0.7-1.9-1c0.3-0.5,0.7-1,1-1.5
			c0.7,0.5,1.5,1,2.3,1.5C245.5,156.3,246.3,156.8,247.2,157.3z"/>
		<path fill="#333333" stroke="#333333" stroke-width="0.7" stroke-miterlimit="10" d="M249.6,150.2c0.6,0.3,1.1,0.6,1.7,1
			c-1,1.7-1.9,3.3-3,4.9c-1.5-1-3.2-2-5.1-3.2c-1.8-1.1-3.4-2-4.7-2.8c0.9-1.4,1.7-2.8,2.5-4.2c0.6,0.3,1.1,0.7,1.7,1
			c-0.7,1-1.3,2-1.8,2.8c0.7,0.4,1.6,0.8,2.5,1.4c0.5-0.8,0.9-1.6,1.4-2.5c0.5,0.3,1.1,0.6,1.6,0.9c-0.6,0.8-1.1,1.7-1.5,2.4
			c1,0.6,2,1.1,2.9,1.6C248.4,152.6,249,151.5,249.6,150.2z"/>
	</g>
</g>
</svg>
