<svg xmlns="http://www.w3.org/2000/svg" viewBox="0 0 291.05 218.34"><defs><style>.cls-1{fill:#fbe93c;}.cls-1,.cls-2,.cls-5{stroke:#0072bc;}.cls-1,.cls-2{stroke-width:3px;}.cls-2{fill:none;}.cls-3{fill:#231f20;}.cls-4{fill:#0072bc;}.cls-5{fill:#fff;}.cls-6{fill:#0db14b;}.cls-7{fill:#7bd3f7;}</style></defs><title>Asset 1</title><g id="Layer_2" data-name="Layer 2"><g id="Layer_1-2" data-name="Layer 1"><path class="cls-1" d="M256.29,186.54l-25.72-22.28,17.69-27s13.08-13,11.33-30.52l29.78,21.9s-9.14,39.26-28.74,56.45c-1.88,1.31-3.29,1.71-4.34,1.42-7.3-2,3.64-38.17,3.64-38.17"/><path class="cls-1" d="M35.31,183.92,60.82,161.4l-18-26.8s-13.2-12.89-11.62-30.41L1.69,126.35S11.2,165.52,31,182.53c1.88,1.29,3.3,1.68,4.34,1.39,7.28-2.11-4-38.13-4-38.13"/><path class="cls-1" d="M237.53,127.6c-10.13,35.61-46.63,62-90.22,62-44.63,0-81.9-27.65-91-64.54l-25,20.7C48.73,187.26,94,216.84,147.18,216.84c52.1,0,96.65-28.39,114.82-68.54Z"/><path class="cls-2" d="M147.55,1.5c-46.73,0-84.61,38.43-84.61,85.83a85.78,85.78,0,0,0,55.83,80.72c5.26-4.21,11.42-16.43,5.2-19.37-31.83-10.92-25-31.09-25-31.09,12,21.09,29.19,19,29.19,19L117,123.7c12.05,2,19.39,12.4,19.39,12.4,2.59,8.5,1,28.8.27,36.32a83.33,83.33,0,0,0,10.89.74c2.41,0,4.79-.13,7.15-.33-.22-7.49-.51-28.57,2.66-37.11,0,0,8-10,20.17-11.25l-11.94,12.39s17,3.25,30.38-17.33c0,0,5.43,21-27,29.83-6.37,2.54-1.15,15.21,3.79,19.93,34.43-10.86,59.44-43.45,59.44-82C232.17,39.93,194.29,1.5,147.55,1.5Z"/><path class="cls-3" d="M47.35,156.63l9.82-6.75c2,2.45,3.06,3.63,5.16,5.91,3.71,4.05,4.21,7.19,1.32,9.87s-6.54,2-10.81-2.72C50.61,160.5,49.51,159.24,47.35,156.63Zm4.76,4.05,1,1.17a3.68,3.68,0,0,0,2.84,1.5,6.91,6.91,0,0,0,3.53-1.89,6.91,6.91,0,0,0,2.45-3,3,3,0,0,0-1-2.69c-.39-.42-.58-.64-1-1.07Z"/><path class="cls-3" d="M72.24,180.6a14.65,14.65,0,0,1-3.17-2,6.78,6.78,0,0,1-1.86-2.89c-.17-.22-2.32-.62-3.55-1.73-2.29-2.08-2.79-3.78-1.56-5,.94-.89,2.6-.54,5,.91,2.17,1.32,3.49,1.68,4,1.18.6-.65.38-1.43-.65-2.35-1.19-1.06-2.08-1.3-2.69-.68a2.31,2.31,0,0,0-.48,1c-.66-.76-1-1.15-1.62-1.92a3.62,3.62,0,0,1,.48-.59c1-1,2.91,0,5.84,2.52,2.78,2.43,3.79,4,3,5l-3.39,4a.72.72,0,0,0,.15,1.16,3.11,3.11,0,0,0,.73.35C72.3,180.05,72.28,180.23,72.24,180.6Zm-2.35-8.3A4.28,4.28,0,0,1,68.7,172a2.11,2.11,0,0,0-2.5.34c-.79.82-.92,1.49-.36,2a1.49,1.49,0,0,0,2.37-.18C68.89,173.4,69.22,173,69.89,172.3Z"/><path class="cls-3" d="M83.56,189c-1.68-1.07-2.51-1.62-4.17-2.76,1.45-2.09,2.17-3.14,3.61-5.23.37-.54.33-.95-.11-1.26a1.82,1.82,0,0,0-1.61-.2,2.87,2.87,0,0,0-1.57,1.12l-2.79,3.84c-1.65-1.19-2.47-1.8-4.09-3.05,2.16-2.73,3.25-4.08,5.41-6.8a37,37,0,0,0,3.91,2.66l-1,1.31a6.33,6.33,0,0,1,4.42,1.1c1.78,1.19,2.29,2.37,1.5,3.62Z"/><path class="cls-3" d="M86,190.48l4.45-7.43a33.86,33.86,0,0,0,4,2.08l-4.25,7.81C88.5,192,87.65,191.5,86,190.48Zm8.12-9.18c1.19.69,1.61,1.35,1.25,2s-1.16.66-2.37,0-1.62-1.4-1.23-2.05S92.89,180.61,94.08,181.3Z"/><path class="cls-3" d="M104.8,199.56a12,12,0,0,1-3.29-.88,6,6,0,0,1-2.36-2.16c-.19-.13-2.19.14-3.54-.53-2.51-1.24-3.36-2.69-2.58-4.19.6-1.15,2.13-1.35,4.55-.72,2.23.57,3.47.49,3.75-.13.36-.81,0-1.48-1.15-2-1.3-.63-2.14-.58-2.52.2a2.47,2.47,0,0,0-.17,1.11c-.76-.51-1.14-.78-1.89-1.31a3.89,3.89,0,0,1,.28-.71c.63-1.23,2.52-1,5.72.55,3,1.43,4.34,2.63,3.87,3.83-.79,2-1.18,2.94-2,4.9a.71.71,0,0,0,.42,1.05,2.33,2.33,0,0,0,.73.11C104.72,199,104.74,199.2,104.8,199.56Zm-4.16-7.14a3.8,3.8,0,0,1-1.13.08,2,2,0,0,0-2.1,1.11c-.49,1-.43,1.71.18,2,.89.43,1.57.11,2-.92S100.23,193.33,100.64,192.42Z"/><path class="cls-3" d="M125.67,197.4c-.86-.06-1.29-.1-2.16-.18a3.42,3.42,0,0,0,.3-.75c.29-1.35-.64-2.25-2.78-2.81-1.69-.45-2.65-.25-2.9.67-.19.67.61,1.55,2.44,2.55,3.52,1.92,5.2,3.69,4.84,5.56a2.92,2.92,0,0,1-2.19,2.29,8.42,8.42,0,0,1-4.71-.09c-4.14-1.09-5.87-2.89-5.21-5.06a5,5,0,0,1,.25-.62c.94.15,1.41.22,2.35.35a3.82,3.82,0,0,0-.62,1.17c-.4,1.4.58,2.47,2.94,3.1,1.89.51,3,.21,3.18-.81.17-.77-.79-1.69-2.84-2.86-3-1.69-4.08-3.53-3.54-5.32a2.91,2.91,0,0,1,2.22-2,8,8,0,0,1,4.14.17C124.68,193.65,126.12,195.1,125.67,197.4Z"/><path class="cls-3" d="M135.89,203.68l1.81.59v.35c-.18,2.2-2,3.19-5.49,2.72-4.11-.56-5.9-2.45-5.39-5.31a4.17,4.17,0,0,1,2.29-3.12,7.61,7.61,0,0,1,4.65-.6c2.68.35,3.94,1.36,3.78,3.19-.82.22-1.24.32-2.08.51,0-.33.07-.49.12-.82.13-1.24-.37-1.93-1.48-2.07-1.48-.19-2.39.91-2.73,3.33a6.57,6.57,0,0,0,.08,3.16,2,2,0,0,0,1.76,1.09c1.67.21,2.58-.46,2.72-2A5.84,5.84,0,0,0,135.89,203.68Z"/><path class="cls-3" d="M139.05,207.87c.23-3.48.35-5.22.59-8.69a31.17,31.17,0,0,0,4.21,0c-.11,3.57-.17,5.36-.27,8.94C141.76,208.05,140.86,208,139.05,207.87Zm2.9-12c1.27.07,1.89.46,1.87,1.22s-.69,1.12-2,1.05-1.92-.5-1.87-1.25S140.68,195.85,142,195.92Z"/><path class="cls-3" d="M154.88,204.7l1.8.24c0,2-1.65,3.21-4.87,3.34-4.18.17-6.25-1.37-6.21-4.28a4.45,4.45,0,0,1,1.61-3.45,6.12,6.12,0,0,1,3.94-1.43c3.34-.13,5.14,1.31,5.4,4.56-2.54.22-3.82.29-6.36.36.05,2.29.91,3.43,2.56,3.35s2.26-.79,2.17-2.09C154.91,205.13,154.9,204.93,154.88,204.7Zm-4.73-1.62c1,0,1.55-.05,2.59-.11-.1-2-.56-3-1.37-3s-1.14.79-1.19,2.31C150.16,202.6,150.16,202.76,150.15,203.08Z"/><path class="cls-3" d="M170.55,205.7c-1.79.38-2.69.56-4.49.86l-1-6.31c-.11-.65-.4-.93-.88-.85a1.6,1.6,0,0,0-1.16,1,3.16,3.16,0,0,0-.3,1.89c.26,1.89.38,2.84.64,4.73-1.8.26-2.7.38-4.51.57l-.85-8.69a30.32,30.32,0,0,0,4.16-.74c.09.65.13,1,.22,1.61a5.47,5.47,0,0,1,3.55-2.23c1.93-.36,3,.16,3.32,1.62Z"/><path class="cls-3" d="M180.69,199l1.93-.2.13.32c.67,2.1-.69,3.77-4.11,4.76-4.06,1.17-6.41.16-7-2.68a4.35,4.35,0,0,1,.93-3.81,8,8,0,0,1,4.11-2.45c2.63-.77,4.22-.37,4.77,1.38-.7.54-1,.8-1.76,1.32-.09-.32-.13-.48-.21-.8-.35-1.2-1.08-1.62-2.18-1.29-1.46.43-1.89,1.81-1.28,4.17a6.3,6.3,0,0,0,1.28,2.88,2,2,0,0,0,2.06.28c1.64-.48,2.24-1.48,1.8-2.93A5.7,5.7,0,0,0,180.69,199Z"/><path class="cls-3" d="M192.66,195.18l1.86-.43c.63,1.91-.6,3.62-3.72,4.9-4,1.65-6.53.93-7.44-1.83a4.52,4.52,0,0,1,.44-3.82,6.62,6.62,0,0,1,3.38-2.75c3.24-1.32,5.49-.61,6.8,2.36-2.44,1.12-3.67,1.65-6.13,2.62.79,2.14,2,2.91,3.59,2.24s2-1.56,1.47-2.75C192.84,195.56,192.76,195.38,192.66,195.18Zm-5.17.15c1-.39,1.51-.6,2.51-1-.76-1.89-1.54-2.66-2.33-2.34s-.85,1.15-.41,2.6C187.35,194.88,187.4,195,187.49,195.33Z"/><path class="cls-3" d="M212.6,182.2l2.06-1c.2.22.36.42.5.6a3,3,0,0,1,0,3.36,10.64,10.64,0,0,1-3.82,3.77c-4.65,3-8,2.48-9.83-1a5.73,5.73,0,0,1-.28-5,9.49,9.49,0,0,1,3.94-4.43c3-2,5.24-2.07,6.65-.09-.56.73-.84,1.09-1.41,1.8-.16-.3-.3-.53-.4-.69-1-1.42-2.3-1.56-4-.47s-1.72,3.26.18,6.4c1.63,2.7,3.54,3.41,5.71,2a4.15,4.15,0,0,0,1.76-2.15,2.42,2.42,0,0,0-.27-2.27A6.19,6.19,0,0,0,212.6,182.2Z"/><path class="cls-3" d="M215.24,171.28l7.53,9.23c-1.62,1.28-2.43,1.9-4.07,3.11-2.81-3.77-4.21-5.65-7-9.41C212.69,173.46,213.89,172.49,215.24,171.28Z"/><path class="cls-3" d="M228.74,163.41l6.56,6.07c-1.55,1.51-2.32,2.25-3.89,3.69l-1-1A6.5,6.5,0,0,1,228,176.4c-1.93,1.67-3.39,1.9-4.37.76l-4.29-5c1.23-1,2.41-2.16,3.54-3.3l4.62,4.93a.8.8,0,0,0,1.25,0c1.15-1,1-2.28-.4-3.72-1.23-1.24-1.84-1.87-3.08-3.11C226.49,165.84,227.63,164.65,228.74,163.41Z"/><path class="cls-3" d="M237.42,167.35l-8.86-7.8c.56-.57,1.66-1.78,3.27-3.7l3.28,2.63a4.81,4.81,0,0,1,1.24-3.09c2.23-2.52,4.5-3.06,6.88-1.42,2.68,1.85,2.63,4.51-.26,7.74a8.22,8.22,0,0,1-4.77,2.76c.08.76.11,1.14.17,1.91Zm-1.13-10c-.78.85-.37,1.9,1.2,3.17,1.86,1.49,3.19,1.81,4,.93s.55-1.54-.45-2.3l-1.66-1.35-1-.67A1.54,1.54,0,0,0,236.29,157.37Z"/><path class="cls-4" d="M149.12,32.8c-8.22,0-14.88,18.57-14.88,41.48s6.66,41.48,14.88,41.48S164,97.19,164,74.28,157.34,32.8,149.12,32.8Zm.21,81.34c-6.2,0-11.22-16-11.22-35.71s5-35.72,11.22-35.72,11.21,16,11.21,35.72S155.52,114.14,149.33,114.14Z"/><path class="cls-4" d="M181.63,50.17c-4.69-7.06-23.07-2.18-41.06,10.89s-28.75,29.4-24.06,36.46,23.07,2.19,41.06-10.89S186.32,57.23,181.63,50.17ZM158.14,84.3c-15.57,11.3-31.31,15.75-35.16,10s5.65-19.67,21.22-31,31.31-15.76,35.15-9.95S173.71,73,158.14,84.3Z"/><path class="cls-4" d="M157.63,61c-17.87-13.24-36.21-18.29-41-11.28-3.76,5.56,2.13,17,13.62,28.12-9.07-9.16-13.61-18.35-10.53-22.89,4.06-6,19.88-1.57,35.33,9.88s24.7,25.6,20.63,31.6c-3,4.49-12.68,3.14-23.82-2.64,13.66,7.48,25.75,9.4,29.47,3.9C186.13,90.64,175.5,74.22,157.63,61ZM130.29,77.81a86.62,86.62,0,0,0,10.09,8.71,85.58,85.58,0,0,0,11.52,7.24,99.49,99.49,0,0,1-11.48-7.38A101.11,101.11,0,0,1,130.29,77.81Z"/><path class="cls-5" d="M126.42,85.63a5.66,5.66,0,1,1-5.64-6.12A5.9,5.9,0,0,1,126.42,85.63Z"/><path class="cls-6" d="M155.82,75.25a6.33,6.33,0,1,1-6.32-6.63A6.48,6.48,0,0,1,155.82,75.25Z"/><path class="cls-7" d="M148.74,78.25c.6,0,1.42.73,3.2.49a3.08,3.08,0,0,1,2.15.26,6.13,6.13,0,0,0,1.26-3.74,6,6,0,0,0-4.07-5.77l.2,1c.65,1.56-.9,1.56-1.6,3.09s-2.2,2.1-2.45.08a3,3,0,0,0-2.38-2.34,6.18,6.18,0,0,0-1.43,4,6,6,0,0,0,3.79,5.66C147.58,80.35,148.22,78.29,148.74,78.25Z"/><path class="cls-6" d="M151.51,74.49a1.55,1.55,0,0,0-.29,1.12c.12.6-3.13-.12-.22,1.19s1.47-.37,1.49-.71S154.66,72.94,151.51,74.49Z"/></g></g></svg>
