<?xml version="1.0" encoding="utf-8"?>
<!-- Generator: Adobe Illustrator 11.0, SVG Export Plug-In . SVG Version: 6.0.0 Build 78)  -->
<!DOCTYPE svg PUBLIC "-//W3C//DTD SVG 1.0//EN"    "http://www.w3.org/TR/2001/REC-SVG-20010904/DTD/svg10.dtd" [
	<!ENTITY ns_flows "http://ns.adobe.com/Flows/1.0/">
	<!ENTITY ns_svg "http://www.w3.org/2000/svg">
	<!ENTITY ns_xlink "http://www.w3.org/1999/xlink">
]>
<svg  xmlns="&ns_svg;" xmlns:xlink="&ns_xlink;" xmlns:a="http://ns.adobe.com/AdobeSVGViewerExtensions/3.0/"
	 width="272.8" height="254.4" viewBox="0 0 272.8 254.4" style="overflow:visible;enable-background:new 0 0 272.8 254.4"
	 xml:space="preserve">
<style type="text/css">
		.st0{fill:#10C62F;}
		.st2{fill:#E6EFE8;}
		.st1{fill:#26CEDB;}
		.st3{fill:#FFFFFF;}
		.st2 {
  opacity:.4;
  animation-name: spin;
  animation-duration: 5s;
  animation-iteration-count: infinite;
  animation-timing-function: linear; 
  transform-origin:50% 40%;
}
		.st0 {
  animation-name: Qspin;
  animation-duration: 10s;
  animation-iteration-count: infinite;
  animation-timing-function: linear; 
  transform-origin:50% 40%;
}

@keyframes spin {
    from {
        transform:rotate(0deg);
    }
    to {
        transform:rotate(360deg);
    }
}
@keyframes Qspin {
    from {
        transform:rotate(360deg);
    }
    to {
        transform:rotate(0deg);
    }
}
	</style>
		<g id="Layer_1">
			<rect x="17" y="23.5" class="st1" width="233.7" height="228.7"/> 
			<g>
				<g>
					<path class="st0" d="M145.3,25.9c-8.3-3.8-27.5-8.2-29.2,5.2c-1,8.9,5.8,12.9,12.8,16.1c7.8,3.6,6.5,10,12.3,15.6
						c11.9,11.9,21.6-5.6,12.5-14.9c-3.5-3.6-9.7-6.4-10.4-11.8c-0.4-3.8,4.1-6.8,1-9.9"/>
				</g>
				<g>
					<path class="st0" d="M174.6,52.8c1.4,3.4,5.3,8.8,5.3,12.4c0.1,3.9-4.5,8.3-3.7,12.2c1.3,4.1,15.9,12.9,20.3,10.7
						c4.9-2.9-0.3-9.7-0.9-13.1c-2-8.4,10.8-30.7-8-30.7c-2.4,0.3-6.1,1.7-8.1,2.8c-4.2,1.9-4.3,1.7-4.4,5.9"/>
				</g>
				<g>
					<path class="st0" d="M166.5,44.1c2.1-2.7,2.4-7.5,0.8-10.5c-1.1-1.8-6.3-6.8-8.9-4.5c-2.6,2.3,3,17.2,8.7,15.4"/>
				</g>
				<g>
					<path class="st0" d="M151.9,92.9c4.7-0.8,6.6-5.8,5.7-9.8c-1.4-4.4-3.3-3.7-7.5-3.7c-4.5,0.4-7.5-1.1-12.1-1.9
						c-3.8-0.5-14.2-1.8-18,0.3c-9.9,5.4,8.2,15.2,13.6,16.1c3.8,0.5,6.1,1,9.8,2.2c3.7,1.2,9.2,2.4,8-3.1"/>
				</g>
				<g>
					<path class="st0" d="M112.5,59.4c-10.5-0.6-7,14.5-13.4,18.2c-3.1,2.2-2.7,0.4-5.8-0.4c-4.8-1.4-7.7-1.7-12.5-1.8
						c-7.5-0.1-9.5-6.9-7.7-13.8c0.6-2.9,2.5-5.2,2.6-8.5c0.6-2.9-1.2-6.4,0.5-9.4C83.1,32.3,85,63.5,89,64.6
						c5.2,1.3,5.1-6.9,6.2-9.2c3.1-5.5,7.9-0.7,12.8,1.7c1.4,0.8,2.6,1.3,3.9,1.8"/>
				</g>
				<g>
					<path class="st0" d="M67.8,98.5c0.2-4-1.8-13.4-7.7-14.8c-3.1-0.5-8.3,0.6-10.2,2.9c-3,3.1-1.3,7.4-2.4,10.8
						c-2.9,8.7-6.9,8.5-3.3,17.7c1.2,3.1,2.8,7.8,7.1,8.1c4.1,0.4,9.2-3.8,9.6-7c0.8-3.3-1.3-6.8,1-9.9c1.5-2.6,7.6-3.3,5.6-7.4"/>
				</g>
				<g>
					<path class="st0" d="M89.9,105.8c-0.7-7.9-11.8-0.1-13.5,3.5c-1.7,2.9-3.6,13.2-0.1,15.8c7.8,5.2,14-12.9,13.7-17.3"/>
				</g>
				<g>
					<path class="st0" d="M87.9,140.1c-7.1,6.3-24.1,4.6-20.8,16.5c1.7,5.9,6.1,10.8,8.7,16.4c2.4,5,4.2,13.1,12.2,11.7
						c7.5-1.6,5.6-10,3.9-15c-2-5.8-5.4-9.8-0.7-15.1c2.6-3.3,6.7-5.5,3.6-9.6c-1.3-1.5-3.1-0.5-3.6-1c-1.4-1.8-0.4-3.8-2.4-5"/>
				</g>
				<g>
					<path class="st0" d="M132,136.6c-1.3-1.5-3.1-1.5-4.7-2.8c-2.3-1.4-3.1-3.1-4.7-5.4c-3.4-4-8.3-7.3-13.4-2.4
						c-3.7,3.4-2.8,11.6-3.6,15.8c-1,4.7-2.2,12.3,3.6,14.4c5.8,2,12.1-3.6,16.3-5.5c6-2.9,14.3,2,18.2-3.4
						c2.6-3.3,1.2-9.6-2.4-10.5c-3.7-1.2-6.6,2.9-10.1,0.6"/>
				</g>
				<g>
					<path class="st0" d="M201.4,113.4c2.2,5.4,3.9,8,10.6,7.8c5.5-0.4,13.6-2.6,13.6-8.8c-0.1-3.9-4.3-6.3-4.9-9.6
						c-0.8-5.6,5.6-10,5.5-15.6c-0.1-3.9-5.1-8.2-9.4-4.9c-3.7,3.1,0.1,10.1-4.4,13.8c-2.8,2.7-31.8,10.2-20.3,16.9
						c1.4,0.8,5.9-0.3,8.1,0.8"/>
				</g>
				<g>
					<path class="st0" d="M203.6,166.1c12.3-4.7,11.8-8.7,6.1-18.4c-2.6-4.9-4.9-9.6-12.1-9.8c-5.8-0.1-4.4,1.3-2.9,6.1
						c2,5.8,1.6,8.3-4.3,11.5c-3.5,2-6.7,1.9-4.1,6.5c2.1,3.4,4.9,2.4,7.8,2.6c3.3,0.4,5.6,1.5,8.9,1.9"/>
				</g>
				<g>
					<path class="st0" d="M176.4,147c-2-2.5-2.1-8.7-5.9-10.2c-4.7-1.8-4.7,2.4-4.1,5.8c0.9,4.9,9.2,12.2,9.4,3"/>
				</g>
				<g>
					<path class="st0" d="M181,184.2c6.8-2.6-5-7.3-6.7-7.9c-6.2-3.2-4.4-11.1-11-14.2c-6.2-2.9-11,1-10.8,6.8
						c0.5,6.7,4.4,10.1,3,17.2c-0.6,3.8-2.4,13.4,3.6,14.4c4.3,1,6.1-4.3,8.7-5.9c4.3-2.6,19.1-2,14.2-10.7"/>
				</g>
				<g>
					<path class="st0" d="M127.7,185.2c2.6-4,1.8-9.8,4.3-14.1c1.4-2.8,8.4-7.5,1.8-8.9c-3.6-1-8.1,4.7-11.1,6.2
						c-3.3,1.6-7.7,2-10.8,4.1c-7.2,5,0.4,17.9,6.9,20c2,0.6,9.9,2.5,11.5,1.2c3.3-2.5-3.1-6.7-2.4-10.5"/>
				</g>
				<g>
					<path class="st0" d="M153.1,124.9c5-0.5,9.4-4.9,14.5-5.7c3.2-0.8,11.2,1.6,8.6-4.3c-1.2-3.3-8.6-3.1-11.6-4.3
						c-3.2-1.5-6.1-4.5-9.7-5.5c-8.4-2.2-15.1,11.6-13.1,17.9c0.7,1.9,3.5,8.9,5.6,9.4c4,0.8,4-6.5,7.6-8.5"/>
				</g>
				<g>
					<path class="st0" d="M120,109.3c-2-2.5-2.1-8.7-5.9-10.2c-4.6-1.9-4.7,2.4-4.1,5.8c0.9,4.9,9.2,12.2,9.4,3"/>
				</g>
			</g>
			<g>
				<g>
					<path class="st2" d="M53.3,170.1"/>
				</g>
				<g>
					<path class="st2" d="M95,165c-2.6-1.7-2.2-5.9-2.2-9.4c0.4-0.4,2.6-2.6,3.5-3c4.3,5.9,10.9,2.1,16.5,0
						c-1.3,10.2,15.7,0,11.7,10.2c-1.8,4.3-10,5.1-13,8.9c-2.2-5.9-5.6-2.1-9.6,0c-3.1-2.6-8.3-3.4-8.3-8.9"/>
				</g>
				<g>
					<path class="st2" d="M70.3,148c-0.9,5.9-3.9,2.6-6.5,1.3c-4.7-1.7-4.3-0.8-5.2-6.4c-0.9-6.8,0.4-12.3,2.6-18.7
						c0.9-3-0.9-6.4,3.5-7.2c0,0,8.3,5.1,9.2,5.5c6.5,4.3,3.1,3.4,1.3,8.1c-0.9,2.6-2.6,0.8-2.6,4.7c0.4,0.4,3.9,3.4,4.7,3.8
						c-6.1,3,2.6,7.2-0.4,11.9c-1.8-1.7-2.6-5.5-6.1-4.7"/>
				</g>
				<g>
					<path class="st2" d="M77.2,94c-0.4,0-1.3,0-1.8,0c-1.3-3.4-0.4-5.1,1.8-6.8c0.4-0.4,11.7-2.1,12.1-2.1c4.3,0.8,7.4,7.7,7,12.8
						c-0.4,0.4-3.1,9.4-3.1,9.8c-3.9,2.6-2.6-1.3-4.7-3c-3.9-3-9.6-6.4-12.6-10.7"/>
				</g>
				<g>
					<path class="st2" d="M187.6,160.3c-3.9,0-15.2-4.3-13.5,3c-6.1-0.8-13.5,0.4-5.2,6.4c-11.7,4.3,0.9,11.9,6.1,5.9
						c-2.6,8.1,9.6,7.7,8.7-2.1c7.4,5.1,3.9-5.6,5.6-8.1c2.2-3,8.3,0.8,6.5-5.5c-3.5-1.7-7.8-1.3-10.4,1.7"/>
				</g>
				<g>
					<path class="st2" d="M197.6,68.6c-2.2-1.7-7.8-1.7-7.4,3c0,1.3,5.2,5.9,6.1,6.4c1.3,0.8,0,3,1.8,4.3c1.8,0.8,5.2-0.8,7-1.3
						c4.3,0,4.3,0.8,8.3-2.1c2.6-2.1,7.8-5.5,5.2-10.2l-7.4-4.7c-2.6-0.8-9.6-2.1-12.6-1.3c-3.5,1.3-6.5,5.1-0.9,7.2"/>
				</g>
				<g>
					<path class="st2" d="M128,38.3c-0.4-2.6-2.2-4.7-4.3-5.9c0,0.8,0.4,0.8,0.4,1.3c-13.9-2.6-15.2,24.6-3.1,21.2
						c3.1,9.4,17-4.3,14.3-11.9c20.9-8.9-10-18.2-8.7-6.8"/>
				</g>
				<g>
					<path class="st2" d="M215.9,114c-1.8-0.8-5.2-1.7-7.8-1.3c-5.2,1.3-1.8,1.3-5.2,3.8c-7.8,6.8-1.8,4.7-2.6,11.5
						c-0.4,2.6-4.7,4.3-3.5,7.7c0.4,1.3,5.2,3.8,6.5,3.8c3.9-0.4,8.7-9.8,8.3-14.9c8.3,5.5,17.4-10.7,9.6-15.8
						c-2.2,3.8-13,0-10.4,7.7"/>
				</g>
				<g>
					<path class="st2" d="M170.2,143.8c0-3-0.4-13.6-7.8-11c-3.1-5.1-9.6-15.8-12.6-3.4c-0.4,3,2.2,4.3,1.3,6.8
						c-0.4,2.6-3.1,4.3-3.5,7.2c-0.9,8.1,5.2,7.2,11.3,8.1c6.5,0.4,13,3.4,11.7-6.4"/>
				</g>
				<g>
					<path class="st2" d="M174.1,26.9c-4.7,0-9.2-1.3-10.9,3c-1.3,2.1,0.9,5.1,0,6.8c0,1.3-2.6,1.3-3.1,3c-0.4,4.7,0,4.7,4.3,7.2
						c3.9,1.7,8.7-0.4,12.6,1.7c1.3,0.4,0.9,3.4,1.3,3.8c10.4,3.8,14.8-8.1,8.3-14c-4.7-4.3-17.4,2.1-13-8.9"/>
				</g>
				<g>
					<path class="st2" d="M92.8,56.6c0-4.3-7-9.4-7.8-3c-1.3-0.8-4.3-1.7-5.2-2.1c-2.2,5.1-15.2,1.7-17.8,8.9
						c-2.6,7.7,14.8,14.9,17,6.8c-8.7,5.9,4.3,7.7,8.7,6.4c9.2-1.7,12.6-5.5,10-16.1c-2.6-0.4-5.6-0.8-8.3,0"/>
				</g>
				<g>
					<path class="st2" d="M136.7,64.3c-7.4-3.4-5.6,3.4-7.8,8.1c-2.2,3.8-10.9,5.5-8.3,12.8c0.9,2.1,3.9,2.6,5.2,3.8
						c2.2,2.1-1.3,4.3,4.3,4.7c6.5,0.4,9.6-11,8.3-15.8c6.5-2.1,8.7-6.8,3.9-10.7c-3.1-2.1-5.6-1.3-9.2-2.1"/>
				</g>
				<g>
					<path class="st2" d="M175.4,80.9c-2.6-0.4-4.7,0-7,1.7c-0.9,0.4,0.4,3,0,3.8c-1.8,1.7-4.7,2.6-6.1,4.7c-2.2,3.8-1.3,6.4,0,9.8
						c0.4,1.7,3.1,2.1,3.5,3.8c0.4,1.7-1.8,3.8-1.3,5.5c6.1,20,28.7-16.1,13.9-16.6c0.4-5.1,2.2-13.2-5.6-11.9"/>
				</g>
				<g>
					<path class="st2" d="M133.3,116.5c-3.5-15.8-17.4-5.5-23.1,0.8c-2.6,2.6-9.6,8.1-8.3,12.8c2.2,6.4,13.9,5.5,18.2,2.1
						c1.3,8.5,9.6,2.6,12.1-1.3c2.6-3.8,7-16.1,0.9-19.1"/>
				</g>
				<g>
					<path class="st2" d="M152.8,180.7c2.2-5.5,0-15.3-5.6-6.8c-7.4-11-21.3,17.9-4.3,16.1c0.9,4.7,9.2,3.4,11.3,0.4
						c2.2-3.4,0.4-11.5-2.6-13.2"/>
				</g>
			</g>
			<g>
				<g>
					<path class="st3" d="M0,0v254.4h272.8V0H0z M134.9,190.8c-22.7,0-41.1-17.2-41.1-38.3c0-21.2,18.4-38.3,41.1-38.3
						c22.7,0,41.1,17.2,41.1,38.3C176,173.7,157.6,190.8,134.9,190.8z"/>
				</g>
			</g>
		</g>
	</svg>
